<?xml version="1.0" encoding="utf-8"?>
<!-- Generator: Adobe Illustrator 24.0.0, SVG Export Plug-In . SVG Version: 6.00 Build 0)  -->
<svg version="1.1" id="Layer_1" xmlns="http://www.w3.org/2000/svg" xmlns:xlink="http://www.w3.org/1999/xlink" x="0px" y="0px"
	 viewBox="0 0 1366 768" style="enable-background:new 0 0 1366 768;" xml:space="preserve">
<style type="text/css">
	.st0{fill:url(#SVGID_1_);}
	.st1{fill:url(#SVGID_2_);}
	.st2{fill:url(#SVGID_3_);}
	.st3{fill:url(#SVGID_4_);}
	.st4{fill:url(#SVGID_5_);}
	.st5{fill:url(#SVGID_6_);}
	.st6{fill:url(#SVGID_7_);}
	.st7{fill:url(#SVGID_8_);}
	.st8{fill:url(#SVGID_9_);}
	.st9{fill:url(#SVGID_10_);}
	.st10{fill:url(#SVGID_11_);}
</style>
<g>
	<g>
		<path d="M668.4,624h-1.9l-7.5-11.2V624h-1.9v-14.1h1.9l7.5,11.2v-11.2h1.9V624z"/>
		<path d="M681.2,612.9V624h-1.9v-1.8c-0.4,0.7-0.9,1.1-1.5,1.5s-1.4,0.5-2.1,0.5c-0.8,0-1.5-0.2-2.2-0.5c-0.7-0.4-1.2-0.9-1.6-1.6
			c-0.4-0.7-0.6-1.6-0.6-2.6v-6.6h1.8v6.3c0,1.1,0.3,2,0.8,2.6c0.6,0.6,1.3,0.9,2.3,0.9c1,0,1.7-0.3,2.3-0.9
			c0.6-0.6,0.8-1.4,0.8-2.6v-6.3H681.2z"/>
		<path d="M692,613.4c0.9,0.5,1.5,1.2,2,2c0.5,0.9,0.7,1.9,0.7,3c0,1.1-0.3,2.1-0.8,3c-0.5,0.9-1.2,1.6-2.1,2s-1.9,0.7-2.9,0.7
			c-1,0-2-0.2-2.8-0.7c-0.8-0.5-1.5-1.2-2-2c-0.5-0.9-0.7-1.9-0.7-3c0-1.2,0.2-2.2,0.7-3s1.2-1.6,2-2c0.9-0.5,1.8-0.7,2.9-0.7
			S691.2,612.9,692,613.4z M687.2,614.7c-0.6,0.3-1,0.8-1.3,1.4c-0.3,0.6-0.5,1.4-0.5,2.3c0,0.9,0.2,1.7,0.5,2.3
			c0.3,0.6,0.8,1.1,1.3,1.4c0.5,0.3,1.1,0.5,1.8,0.5c0.7,0,1.3-0.2,1.9-0.5c0.6-0.3,1.1-0.8,1.4-1.5c0.4-0.6,0.5-1.4,0.5-2.3
			c0-0.9-0.2-1.7-0.5-2.3s-0.8-1.1-1.4-1.5s-1.2-0.5-1.9-0.5C688.4,614.2,687.8,614.4,687.2,614.7z"/>
		<path d="M712,613.4c0.8,0.5,1.4,1.1,1.9,2c0.5,0.9,0.7,1.9,0.7,3c0,1.1-0.2,2.1-0.7,3c-0.5,0.9-1.1,1.6-1.9,2.1
			c-0.8,0.5-1.7,0.7-2.7,0.7c-1,0-1.8-0.2-2.5-0.7c-0.7-0.5-1.3-1-1.6-1.8v7.6h-1.9v-16.5h1.9v2.2c0.4-0.7,0.9-1.3,1.6-1.8
			c0.7-0.4,1.5-0.7,2.5-0.7C710.2,612.7,711.1,612.9,712,613.4z M707,614.8c-0.6,0.3-1,0.8-1.4,1.5s-0.5,1.4-0.5,2.2
			s0.2,1.6,0.5,2.2c0.3,0.6,0.8,1.1,1.4,1.5c0.6,0.3,1.2,0.5,1.9,0.5s1.3-0.2,1.9-0.5s1-0.8,1.4-1.5s0.5-1.4,0.5-2.2
			s-0.2-1.6-0.5-2.2c-0.3-0.6-0.8-1.1-1.4-1.4c-0.6-0.3-1.2-0.5-1.9-0.5C708.2,614.3,707.6,614.5,707,614.8z"/>
		<path d="M724,613.3c0.7,0.4,1.3,1,1.6,1.8v-2.2h1.9V624h-1.9v-2.3c-0.4,0.7-0.9,1.3-1.6,1.8c-0.7,0.5-1.5,0.7-2.5,0.7
			c-1,0-1.9-0.2-2.7-0.7c-0.8-0.5-1.4-1.2-1.9-2.1c-0.5-0.9-0.7-1.9-0.7-3c0-1.1,0.2-2.1,0.7-3c0.5-0.9,1.1-1.5,1.9-2
			c0.8-0.5,1.7-0.7,2.7-0.7C722.5,612.7,723.3,612.9,724,613.3z M720,614.8c-0.6,0.3-1,0.8-1.4,1.4c-0.3,0.6-0.5,1.3-0.5,2.2
			s0.2,1.6,0.5,2.2s0.8,1.1,1.4,1.5c0.6,0.4,1.2,0.5,1.9,0.5c0.7,0,1.3-0.2,1.9-0.5c0.6-0.3,1-0.8,1.4-1.5c0.3-0.6,0.5-1.4,0.5-2.2
			s-0.2-1.6-0.5-2.2c-0.3-0.6-0.8-1.1-1.4-1.5c-0.6-0.3-1.2-0.5-1.9-0.5C721.2,614.3,720.5,614.4,720,614.8z"/>
		<path d="M746.2,613.2c0.7,0.4,1.2,0.9,1.6,1.6c0.4,0.7,0.6,1.6,0.6,2.6v6.6h-1.8v-6.3c0-1.1-0.3-2-0.8-2.6
			c-0.6-0.6-1.3-0.9-2.3-0.9c-1,0-1.7,0.3-2.3,0.9c-0.6,0.6-0.8,1.4-0.8,2.6v6.3h-1.8v-6.3c0-1.1-0.3-2-0.8-2.6
			c-0.5-0.6-1.3-0.9-2.3-0.9c-1,0-1.7,0.3-2.3,0.9c-0.6,0.6-0.8,1.4-0.8,2.6v6.3h-1.9v-11.2h1.9v1.8c0.4-0.7,0.9-1.1,1.5-1.5
			c0.6-0.3,1.4-0.5,2.1-0.5c0.9,0,1.6,0.2,2.3,0.6c0.7,0.4,1.2,1,1.6,1.8c0.4-0.8,1-1.4,1.7-1.8c0.7-0.4,1.5-0.6,2.4-0.6
			C744.8,612.7,745.6,612.8,746.2,613.2z"/>
		<path d="M758.5,613.3c0.7,0.4,1.3,1,1.6,1.8v-2.2h1.9V624h-1.9v-2.3c-0.4,0.7-0.9,1.3-1.6,1.8c-0.7,0.5-1.5,0.7-2.5,0.7
			c-1,0-1.9-0.2-2.7-0.7c-0.8-0.5-1.4-1.2-1.9-2.1c-0.5-0.9-0.7-1.9-0.7-3c0-1.1,0.2-2.1,0.7-3c0.5-0.9,1.1-1.5,1.9-2
			c0.8-0.5,1.7-0.7,2.7-0.7C756.9,612.7,757.8,612.9,758.5,613.3z M754.4,614.8c-0.6,0.3-1,0.8-1.4,1.4c-0.3,0.6-0.5,1.3-0.5,2.2
			s0.2,1.6,0.5,2.2s0.8,1.1,1.4,1.5c0.6,0.4,1.2,0.5,1.9,0.5c0.7,0,1.3-0.2,1.9-0.5c0.6-0.3,1-0.8,1.4-1.5c0.3-0.6,0.5-1.4,0.5-2.2
			s-0.2-1.6-0.5-2.2c-0.3-0.6-0.8-1.1-1.4-1.5c-0.6-0.3-1.2-0.5-1.9-0.5C755.6,614.3,755,614.4,754.4,614.8z"/>
		<path d="M770.2,622.5v1.5h-1.9c-1,0-1.7-0.2-2.2-0.7c-0.5-0.5-0.7-1.2-0.7-2.2v-6.8H764v-1.5h1.4v-2.8h1.9v2.8h2.9v1.5h-2.9v6.8
			c0,0.5,0.1,0.9,0.3,1.1c0.2,0.2,0.6,0.3,1.1,0.3H770.2z"/>
		<path d="M782,612.9V624h-1.9v-1.8c-0.4,0.7-0.9,1.1-1.5,1.5c-0.6,0.3-1.4,0.5-2.1,0.5c-0.8,0-1.5-0.2-2.2-0.5
			c-0.7-0.4-1.2-0.9-1.6-1.6c-0.4-0.7-0.6-1.6-0.6-2.6v-6.6h1.8v6.3c0,1.1,0.3,2,0.8,2.6c0.5,0.6,1.3,0.9,2.3,0.9
			c1,0,1.7-0.3,2.3-0.9c0.6-0.6,0.8-1.4,0.8-2.6v-6.3H782z"/>
		<path d="M786.5,624.7c0,1.5-0.7,2.3-2.1,2.3v-0.9c0.3,0,0.6-0.1,0.7-0.2s0.2-0.4,0.2-0.8v-0.5h-1v-1.9h1.9
			C786.4,623.4,786.5,624.1,786.5,624.7z"/>
		<path d="M795,608.9c0.2-0.2,0.5-0.4,0.9-0.4c0.4,0,0.7,0.1,0.9,0.4c0.2,0.2,0.4,0.5,0.4,0.9c0,0.4-0.1,0.7-0.4,0.9
			c-0.2,0.2-0.5,0.4-0.9,0.4c-0.4,0-0.6-0.1-0.9-0.4c-0.2-0.2-0.4-0.5-0.4-0.9C794.7,609.4,794.8,609.1,795,608.9z M796.8,612.9V624
			H795v-11.2H796.8z"/>
		<path d="M803.4,618.4l5.3,5.6h-2.5l-4.4-4.9v4.9h-1.9V609h1.9v8.9l4.3-5h2.6L803.4,618.4z"/>
		<path d="M810.4,608.9c0.2-0.2,0.5-0.4,0.9-0.4c0.4,0,0.7,0.1,0.9,0.4c0.2,0.2,0.4,0.5,0.4,0.9c0,0.4-0.1,0.7-0.4,0.9
			c-0.2,0.2-0.5,0.4-0.9,0.4c-0.4,0-0.6-0.1-0.9-0.4c-0.2-0.2-0.4-0.5-0.4-0.9C810,609.4,810.2,609.1,810.4,608.9z M812.2,612.9V624
			h-1.9v-11.2H812.2z"/>
		<path d="M826.6,612.7v1.9h-0.5c-1,0-1.7,0.2-2.2,0.7c-0.5,0.5-0.7,1.4-0.7,2.6v6.1h-1.9v-11.2h1.9v1.9
			C823.9,613.4,825,612.7,826.6,612.7z"/>
		<path d="M836,613.3c0.7,0.4,1.3,1,1.6,1.8v-2.2h1.9V624h-1.9v-2.3c-0.4,0.7-0.9,1.3-1.6,1.8c-0.7,0.5-1.5,0.7-2.5,0.7
			c-1,0-1.9-0.2-2.7-0.7c-0.8-0.5-1.4-1.2-1.9-2.1c-0.5-0.9-0.7-1.9-0.7-3c0-1.1,0.2-2.1,0.7-3c0.5-0.9,1.1-1.5,1.9-2
			c0.8-0.5,1.7-0.7,2.7-0.7C834.4,612.7,835.3,612.9,836,613.3z M832,614.8c-0.6,0.3-1,0.8-1.4,1.4c-0.3,0.6-0.5,1.3-0.5,2.2
			s0.2,1.6,0.5,2.2s0.8,1.1,1.4,1.5c0.6,0.4,1.2,0.5,1.9,0.5c0.7,0,1.3-0.2,1.9-0.5c0.6-0.3,1-0.8,1.4-1.5c0.3-0.6,0.5-1.4,0.5-2.2
			s-0.2-1.6-0.5-2.2c-0.3-0.6-0.8-1.1-1.4-1.5c-0.6-0.3-1.2-0.5-1.9-0.5C833.2,614.3,832.5,614.4,832,614.8z"/>
		<path d="M846,618.4l5.3,5.6h-2.5l-4.4-4.9v4.9h-1.9V609h1.9v8.9l4.3-5h2.6L846,618.4z"/>
		<path d="M858.2,622.5v1.5h-1.9c-1,0-1.7-0.2-2.2-0.7c-0.5-0.5-0.7-1.2-0.7-2.2v-6.8H852v-1.5h1.4v-2.8h1.9v2.8h2.9v1.5h-2.9v6.8
			c0,0.5,0.1,0.9,0.3,1.1c0.2,0.2,0.6,0.3,1.1,0.3H858.2z"/>
		<path d="M868,613.4c0.9,0.5,1.5,1.2,2,2c0.5,0.9,0.7,1.9,0.7,3c0,1.1-0.3,2.1-0.8,3c-0.5,0.9-1.2,1.6-2.1,2s-1.9,0.7-2.9,0.7
			c-1,0-2-0.2-2.8-0.7c-0.8-0.5-1.5-1.2-2-2c-0.5-0.9-0.7-1.9-0.7-3c0-1.2,0.2-2.2,0.7-3s1.2-1.6,2-2c0.9-0.5,1.8-0.7,2.9-0.7
			S867.2,612.9,868,613.4z M863.2,614.7c-0.6,0.3-1,0.8-1.3,1.4c-0.3,0.6-0.5,1.4-0.5,2.3c0,0.9,0.2,1.7,0.5,2.3
			c0.3,0.6,0.8,1.1,1.3,1.4c0.5,0.3,1.1,0.5,1.8,0.5c0.7,0,1.3-0.2,1.9-0.5c0.6-0.3,1.1-0.8,1.4-1.5c0.4-0.6,0.5-1.4,0.5-2.3
			c0-0.9-0.2-1.7-0.5-2.3s-0.8-1.1-1.4-1.5s-1.2-0.5-1.9-0.5C864.4,614.2,863.8,614.4,863.2,614.7z"/>
		<path d="M886,613.6c0.7,0.6,1.1,1.5,1.2,2.6h-1.9c0-0.6-0.2-1.1-0.6-1.5c-0.4-0.4-0.9-0.6-1.6-0.6c-0.7,0-1.3,0.2-1.7,0.5
			c-0.4,0.3-0.6,0.8-0.6,1.3c0,0.4,0.1,0.8,0.4,1c0.3,0.3,0.6,0.4,0.9,0.6c0.4,0.1,0.9,0.3,1.5,0.4c0.8,0.2,1.5,0.4,2,0.6
			c0.5,0.2,0.9,0.5,1.3,0.9c0.4,0.4,0.5,1,0.5,1.7c0,0.6-0.2,1.2-0.5,1.6c-0.4,0.5-0.8,0.9-1.5,1.1c-0.6,0.3-1.4,0.4-2.2,0.4
			c-1.3,0-2.3-0.3-3-0.9c-0.8-0.6-1.2-1.5-1.2-2.6h1.9c0,0.6,0.2,1.1,0.7,1.5c0.4,0.4,1,0.6,1.7,0.6c0.8,0,1.3-0.2,1.8-0.5
			c0.4-0.3,0.6-0.7,0.6-1.2c0-0.4-0.1-0.8-0.4-1c-0.3-0.3-0.6-0.4-0.9-0.6c-0.4-0.1-0.9-0.3-1.6-0.4c-0.8-0.2-1.5-0.4-1.9-0.5
			s-0.9-0.5-1.3-0.9c-0.3-0.4-0.5-0.9-0.5-1.6c0-0.6,0.2-1.2,0.5-1.7s0.8-0.9,1.5-1.2s1.4-0.4,2.3-0.4
			C884.3,612.7,885.3,613,886,613.6z"/>
		<path d="M895.2,622.5v1.5h-1.9c-1,0-1.7-0.2-2.2-0.7c-0.5-0.5-0.7-1.2-0.7-2.2v-6.8h-1.4v-1.5h1.4v-2.8h1.9v2.8h2.9v1.5h-2.9v6.8
			c0,0.5,0.1,0.9,0.3,1.1c0.2,0.2,0.6,0.3,1.1,0.3H895.2z"/>
		<path d="M904.3,613.3c0.7,0.4,1.3,1,1.6,1.8v-2.2h1.9V624h-1.9v-2.3c-0.4,0.7-0.9,1.3-1.6,1.8c-0.7,0.5-1.5,0.7-2.5,0.7
			c-1,0-1.9-0.2-2.7-0.7c-0.8-0.5-1.4-1.2-1.9-2.1c-0.5-0.9-0.7-1.9-0.7-3c0-1.1,0.2-2.1,0.7-3c0.5-0.9,1.1-1.5,1.9-2
			c0.8-0.5,1.7-0.7,2.7-0.7C902.8,612.7,903.6,612.9,904.3,613.3z M900.3,614.8c-0.6,0.3-1,0.8-1.4,1.4c-0.3,0.6-0.5,1.3-0.5,2.2
			s0.2,1.6,0.5,2.2s0.8,1.1,1.4,1.5c0.6,0.4,1.2,0.5,1.9,0.5c0.7,0,1.3-0.2,1.9-0.5c0.6-0.3,1-0.8,1.4-1.5c0.3-0.6,0.5-1.4,0.5-2.2
			s-0.2-1.6-0.5-2.2c-0.3-0.6-0.8-1.1-1.4-1.5c-0.6-0.3-1.2-0.5-1.9-0.5C901.5,614.3,900.9,614.4,900.3,614.8z"/>
		<path d="M916.1,622.5v1.5h-1.9c-1,0-1.7-0.2-2.2-0.7c-0.5-0.5-0.7-1.2-0.7-2.2v-6.8h-1.4v-1.5h1.4v-2.8h1.9v2.8h2.9v1.5h-2.9v6.8
			c0,0.5,0.1,0.9,0.3,1.1c0.2,0.2,0.6,0.3,1.1,0.3H916.1z"/>
		<path d="M918.9,612.9l3.4,9.1l3.5-9.1h1.9l-6.8,16.4H919l2.2-5.4l-4.4-11H918.9z"/>
		<path d="M938.2,613.4c0.8,0.5,1.4,1.1,1.9,2c0.5,0.9,0.7,1.9,0.7,3c0,1.1-0.2,2.1-0.7,3c-0.5,0.9-1.1,1.6-1.9,2.1
			c-0.8,0.5-1.7,0.7-2.7,0.7c-1,0-1.8-0.2-2.5-0.7c-0.7-0.5-1.3-1-1.6-1.8v2.3h-1.9V609h1.9v6.1c0.4-0.7,0.9-1.3,1.6-1.8
			c0.7-0.4,1.5-0.7,2.5-0.7C936.5,612.7,937.4,612.9,938.2,613.4z M933.2,614.8c-0.6,0.3-1,0.8-1.4,1.5s-0.5,1.4-0.5,2.2
			s0.2,1.6,0.5,2.2c0.3,0.6,0.8,1.1,1.4,1.5c0.6,0.3,1.2,0.5,1.9,0.5s1.3-0.2,1.9-0.5s1-0.8,1.4-1.5s0.5-1.4,0.5-2.2
			s-0.2-1.6-0.5-2.2c-0.3-0.6-0.8-1.1-1.4-1.4c-0.6-0.3-1.2-0.5-1.9-0.5C934.4,614.3,933.8,614.5,933.2,614.8z"/>
		<path d="M950.9,613.4c0.9,0.5,1.5,1.2,2,2c0.5,0.9,0.7,1.9,0.7,3c0,1.1-0.3,2.1-0.8,3c-0.5,0.9-1.2,1.6-2.1,2s-1.9,0.7-2.9,0.7
			c-1,0-2-0.2-2.8-0.7c-0.8-0.5-1.5-1.2-2-2c-0.5-0.9-0.7-1.9-0.7-3c0-1.2,0.2-2.2,0.7-3s1.2-1.6,2-2c0.9-0.5,1.8-0.7,2.9-0.7
			S950.1,612.9,950.9,613.4z M946.1,614.7c-0.6,0.3-1,0.8-1.3,1.4c-0.3,0.6-0.5,1.4-0.5,2.3c0,0.9,0.2,1.7,0.5,2.3
			c0.3,0.6,0.8,1.1,1.3,1.4c0.5,0.3,1.1,0.5,1.8,0.5c0.7,0,1.3-0.2,1.9-0.5c0.6-0.3,1.1-0.8,1.4-1.5c0.4-0.6,0.5-1.4,0.5-2.3
			c0-0.9-0.2-1.7-0.5-2.3s-0.8-1.1-1.4-1.5s-1.2-0.5-1.9-0.5C947.3,614.2,946.7,614.4,946.1,614.7z"/>
		<path d="M962.8,613.6c0.7,0.6,1.1,1.5,1.2,2.6H962c0-0.6-0.2-1.1-0.6-1.5c-0.4-0.4-0.9-0.6-1.6-0.6c-0.7,0-1.3,0.2-1.7,0.5
			c-0.4,0.3-0.6,0.8-0.6,1.3c0,0.4,0.1,0.8,0.4,1c0.3,0.3,0.6,0.4,0.9,0.6c0.4,0.1,0.9,0.3,1.5,0.4c0.8,0.2,1.5,0.4,2,0.6
			c0.5,0.2,0.9,0.5,1.3,0.9c0.4,0.4,0.5,1,0.5,1.7c0,0.6-0.2,1.2-0.5,1.6c-0.4,0.5-0.8,0.9-1.5,1.1c-0.6,0.3-1.4,0.4-2.2,0.4
			c-1.3,0-2.3-0.3-3-0.9c-0.8-0.6-1.2-1.5-1.2-2.6h1.9c0,0.6,0.2,1.1,0.7,1.5c0.4,0.4,1,0.6,1.7,0.6c0.8,0,1.3-0.2,1.8-0.5
			c0.4-0.3,0.6-0.7,0.6-1.2c0-0.4-0.1-0.8-0.4-1c-0.3-0.3-0.6-0.4-0.9-0.6c-0.4-0.1-0.9-0.3-1.6-0.4c-0.8-0.2-1.5-0.4-1.9-0.5
			s-0.9-0.5-1.3-0.9c-0.3-0.4-0.5-0.9-0.5-1.6c0-0.6,0.2-1.2,0.5-1.7s0.8-0.9,1.5-1.2s1.4-0.4,2.3-0.4
			C961.1,612.7,962,613,962.8,613.6z"/>
		<path d="M980,613.3c0.7,0.4,1.3,1,1.6,1.8V609h1.9V624h-1.9v-2.3c-0.4,0.7-0.9,1.3-1.6,1.8c-0.7,0.5-1.5,0.7-2.5,0.7
			c-1,0-1.9-0.2-2.7-0.7c-0.8-0.5-1.4-1.2-1.9-2.1c-0.5-0.9-0.7-1.9-0.7-3c0-1.1,0.2-2.1,0.7-3c0.5-0.9,1.1-1.5,1.9-2
			c0.8-0.5,1.7-0.7,2.7-0.7C978.4,612.7,979.3,612.9,980,613.3z M975.9,614.8c-0.6,0.3-1,0.8-1.4,1.4c-0.3,0.6-0.5,1.3-0.5,2.2
			s0.2,1.6,0.5,2.2s0.8,1.1,1.4,1.5c0.6,0.4,1.2,0.5,1.9,0.5c0.7,0,1.3-0.2,1.9-0.5c0.6-0.3,1-0.8,1.4-1.5c0.3-0.6,0.5-1.4,0.5-2.2
			s-0.2-1.6-0.5-2.2c-0.3-0.6-0.8-1.1-1.4-1.5c-0.6-0.3-1.2-0.5-1.9-0.5C977.1,614.3,976.5,614.4,975.9,614.8z"/>
		<path d="M993.6,613.3c0.7,0.4,1.3,1,1.6,1.8v-2.2h1.9V624h-1.9v-2.3c-0.4,0.7-0.9,1.3-1.6,1.8c-0.7,0.5-1.5,0.7-2.5,0.7
			c-1,0-1.9-0.2-2.7-0.7c-0.8-0.5-1.4-1.2-1.9-2.1c-0.5-0.9-0.7-1.9-0.7-3c0-1.1,0.2-2.1,0.7-3c0.5-0.9,1.1-1.5,1.9-2
			c0.8-0.5,1.7-0.7,2.7-0.7C992.1,612.7,992.9,612.9,993.6,613.3z M989.6,614.8c-0.6,0.3-1,0.8-1.4,1.4c-0.3,0.6-0.5,1.3-0.5,2.2
			s0.2,1.6,0.5,2.2s0.8,1.1,1.4,1.5c0.6,0.4,1.2,0.5,1.9,0.5c0.7,0,1.3-0.2,1.9-0.5c0.6-0.3,1-0.8,1.4-1.5c0.3-0.6,0.5-1.4,0.5-2.2
			s-0.2-1.6-0.5-2.2c-0.3-0.6-0.8-1.1-1.4-1.5c-0.6-0.3-1.2-0.5-1.9-0.5C990.8,614.3,990.2,614.4,989.6,614.8z"/>
		<path d="M1005.5,612.7v1.9h-0.5c-1,0-1.7,0.2-2.2,0.7c-0.5,0.5-0.7,1.4-0.7,2.6v6.1h-1.9v-11.2h1.9v1.9
			C1002.7,613.4,1003.9,612.7,1005.5,612.7z"/>
		<path d="M1016.4,613.4c0.8,0.5,1.4,1.1,1.9,2c0.5,0.9,0.7,1.9,0.7,3c0,1.1-0.2,2.1-0.7,3c-0.5,0.9-1.1,1.6-1.9,2.1
			c-0.8,0.5-1.7,0.7-2.7,0.7c-1,0-1.8-0.2-2.5-0.7c-0.7-0.5-1.3-1-1.6-1.8v2.3h-1.9V609h1.9v6.1c0.4-0.7,0.9-1.3,1.6-1.8
			c0.7-0.4,1.5-0.7,2.5-0.7C1014.7,612.7,1015.6,612.9,1016.4,613.4z M1011.5,614.8c-0.6,0.3-1,0.8-1.4,1.5s-0.5,1.4-0.5,2.2
			s0.2,1.6,0.5,2.2c0.3,0.6,0.8,1.1,1.4,1.5c0.6,0.3,1.2,0.5,1.9,0.5s1.3-0.2,1.9-0.5s1-0.8,1.4-1.5s0.5-1.4,0.5-2.2
			s-0.2-1.6-0.5-2.2c-0.3-0.6-0.8-1.1-1.4-1.4c-0.6-0.3-1.2-0.5-1.9-0.5C1012.7,614.3,1012,614.5,1011.5,614.8z"/>
		<path d="M1028.5,613.3c0.7,0.4,1.3,1,1.6,1.8v-2.2h1.9V624h-1.9v-2.3c-0.4,0.7-0.9,1.3-1.6,1.8c-0.7,0.5-1.5,0.7-2.5,0.7
			c-1,0-1.9-0.2-2.7-0.7c-0.8-0.5-1.4-1.2-1.9-2.1c-0.5-0.9-0.7-1.9-0.7-3c0-1.1,0.2-2.1,0.7-3c0.5-0.9,1.1-1.5,1.9-2
			c0.8-0.5,1.7-0.7,2.7-0.7C1026.9,612.7,1027.8,612.9,1028.5,613.3z M1024.4,614.8c-0.6,0.3-1,0.8-1.4,1.4
			c-0.3,0.6-0.5,1.3-0.5,2.2s0.2,1.6,0.5,2.2s0.8,1.1,1.4,1.5c0.6,0.4,1.2,0.5,1.9,0.5c0.7,0,1.3-0.2,1.9-0.5c0.6-0.3,1-0.8,1.4-1.5
			c0.3-0.6,0.5-1.4,0.5-2.2s-0.2-1.6-0.5-2.2c-0.3-0.6-0.8-1.1-1.4-1.5c-0.6-0.3-1.2-0.5-1.9-0.5
			C1025.6,614.3,1025,614.4,1024.4,614.8z"/>
		<path d="M1035.1,608.9c0.2-0.2,0.5-0.4,0.9-0.4c0.4,0,0.7,0.1,0.9,0.4c0.2,0.2,0.4,0.5,0.4,0.9c0,0.4-0.1,0.7-0.4,0.9
			c-0.2,0.2-0.5,0.4-0.9,0.4c-0.4,0-0.6-0.1-0.9-0.4c-0.2-0.2-0.4-0.5-0.4-0.9C1034.7,609.4,1034.8,609.1,1035.1,608.9z
			 M1036.9,612.9V624h-1.9v-11.2H1036.9z"/>
	</g>
	<g>
		<radialGradient id="SVGID_1_" cx="250.3868" cy="334.5152" r="203.7546" gradientUnits="userSpaceOnUse">
			<stop  offset="0" style="stop-color:#FFFBCC"/>
			<stop  offset="0.1146" style="stop-color:#FBF2BB"/>
			<stop  offset="0.3413" style="stop-color:#F0D98E"/>
			<stop  offset="0.3708" style="stop-color:#EED688"/>
			<stop  offset="0.6854" style="stop-color:#EBBB10"/>
			<stop  offset="1" style="stop-color:#C3922E"/>
		</radialGradient>
		<path class="st0" d="M299.3,407.4c-5.7-23.5,0.6-49.4,19-67.8l113.6-113.6c13.4-13.4,30.8-20.4,48.4-21
			c-14.1-3.9-32.1-8-52.5-10.4l-145,145c-28.1,28.1-28.1,73.5,0,101.6l12.9,12.9C295.6,436.4,297.2,420.6,299.3,407.4z"/>
		<radialGradient id="SVGID_2_" cx="478.541" cy="545.241" r="165.7655" gradientUnits="userSpaceOnUse">
			<stop  offset="0" style="stop-color:#FFFBCC"/>
			<stop  offset="0.1146" style="stop-color:#FBF2BB"/>
			<stop  offset="0.3413" style="stop-color:#F0D98E"/>
			<stop  offset="0.3708" style="stop-color:#EED688"/>
			<stop  offset="0.6854" style="stop-color:#EBBB10"/>
			<stop  offset="1" style="stop-color:#C3922E"/>
		</radialGradient>
		<path class="st1" d="M431.9,554.8L318.3,441.2c-9.7-9.7-16-21.4-19-33.8c-2.1,13.2-3.7,29-3.6,46.7l136.1,136.1
			c27.2,27.2,70.8,28,99,2.4c-28.5-5.1-46.6-11.5-58.1-17.6C457.9,573.1,443.4,566.3,431.9,554.8z"/>
		<radialGradient id="SVGID_3_" cx="613.2153" cy="499.2932" r="104.6305" gradientUnits="userSpaceOnUse">
			<stop  offset="0" style="stop-color:#FFFBCC"/>
			<stop  offset="0.1146" style="stop-color:#FBF2BB"/>
			<stop  offset="0.3413" style="stop-color:#F0D98E"/>
			<stop  offset="0.3708" style="stop-color:#EED688"/>
			<stop  offset="0.6854" style="stop-color:#EBBB10"/>
			<stop  offset="1" style="stop-color:#C3922E"/>
		</radialGradient>
		<path class="st2" d="M603.9,519.9h-35.5l-35,35c-16.5,16.5-39.1,23.3-60.6,20.4c11.4,6.1,29.5,12.5,58.1,17.6
			c0.9-0.8,1.7-1.6,2.6-2.4L603.9,519.9z"/>
		<radialGradient id="SVGID_4_" cx="458.6264" cy="147.0992" r="145.4218" gradientUnits="userSpaceOnUse">
			<stop  offset="0" style="stop-color:#FFFBCC"/>
			<stop  offset="0.1146" style="stop-color:#FBF2BB"/>
			<stop  offset="0.3413" style="stop-color:#F0D98E"/>
			<stop  offset="0.3708" style="stop-color:#EED688"/>
			<stop  offset="0.6854" style="stop-color:#EBBB10"/>
			<stop  offset="1" style="stop-color:#C3922E"/>
		</radialGradient>
		<path class="st3" d="M533.5,226.1l37.8,37.8l41.8,6.3l-79.6-79.6c-28.1-28.1-73.5-28.1-101.6,0l-4.1,4.1
			c20.4,2.4,38.4,6.5,52.5,10.4C499.5,204.5,518.9,211.4,533.5,226.1z"/>
	</g>
	<g>
		<radialGradient id="SVGID_5_" cx="650.5978" cy="344.4131" r="162.6995" gradientUnits="userSpaceOnUse">
			<stop  offset="0" style="stop-color:#FFFBCC"/>
			<stop  offset="0.1146" style="stop-color:#FBF2BB"/>
			<stop  offset="0.3413" style="stop-color:#F0D98E"/>
			<stop  offset="0.3708" style="stop-color:#EED688"/>
			<stop  offset="0.6854" style="stop-color:#EBBB10"/>
			<stop  offset="1" style="stop-color:#C3922E"/>
		</radialGradient>
		<polygon class="st4" points="432.3,398.4 538.6,271.7 730.9,300.6 731.4,323.7 741.1,334.5 741.1,279.7 772.2,279.7 772.2,299 
			818.4,305.5 868.9,356 781.9,366.7 780.8,351.7 726,351.7 727.1,371 696,373.1 656.2,417.2 538.1,291.5 		"/>
		<radialGradient id="SVGID_6_" cx="505.8805" cy="387.1033" r="92.6761" gradientUnits="userSpaceOnUse">
			<stop  offset="0" style="stop-color:#FFFBCC"/>
			<stop  offset="0.1146" style="stop-color:#FBF2BB"/>
			<stop  offset="0.3413" style="stop-color:#F0D98E"/>
			<stop  offset="0.3708" style="stop-color:#EED688"/>
			<stop  offset="0.6854" style="stop-color:#EBBB10"/>
			<stop  offset="1" style="stop-color:#C3922E"/>
		</radialGradient>
		<polygon class="st5" points="396.3,459.1 536,315.1 615.4,401.1 536,343.1 		"/>
		<radialGradient id="SVGID_7_" cx="794.7782" cy="433.284" r="158.9774" gradientUnits="userSpaceOnUse">
			<stop  offset="0" style="stop-color:#FFFBCC"/>
			<stop  offset="0.1146" style="stop-color:#FBF2BB"/>
			<stop  offset="0.3413" style="stop-color:#F0D98E"/>
			<stop  offset="0.3708" style="stop-color:#EED688"/>
			<stop  offset="0.6854" style="stop-color:#EBBB10"/>
			<stop  offset="1" style="stop-color:#C3922E"/>
		</radialGradient>
		<polygon class="st6" points="581.6,504.7 806.1,504.7 930.6,379 1008,458.5 928.5,361.9 774.9,383.3 774.9,402.7 765.2,411.3 
			765.2,367.2 738.4,367.2 738.4,383.3 704,388.7 		"/>
		<radialGradient id="SVGID_8_" cx="950.5037" cy="454.2264" r="73.4168" gradientUnits="userSpaceOnUse">
			<stop  offset="0" style="stop-color:#FFFBCC"/>
			<stop  offset="0.1146" style="stop-color:#FBF2BB"/>
			<stop  offset="0.3413" style="stop-color:#F0D98E"/>
			<stop  offset="0.3708" style="stop-color:#EED688"/>
			<stop  offset="0.6854" style="stop-color:#EBBB10"/>
			<stop  offset="1" style="stop-color:#C3922E"/>
		</radialGradient>
		<polygon class="st7" points="863,465 930.6,398.4 1038,510.1 928.5,417.7 		"/>
	</g>
	<linearGradient id="SVGID_9_" gradientUnits="userSpaceOnUse" x1="716.2825" y1="235.9785" x2="927.394" y2="235.9785">
		<stop  offset="0" style="stop-color:#007790"/>
		<stop  offset="6.512462e-02" style="stop-color:#057A92"/>
		<stop  offset="0.1414" style="stop-color:#138199"/>
		<stop  offset="0.2234" style="stop-color:#2B8EA4"/>
		<stop  offset="0.3093" style="stop-color:#4C9FB4"/>
		<stop  offset="0.3983" style="stop-color:#76B6C8"/>
		<stop  offset="0.4887" style="stop-color:#A9D1E1"/>
		<stop  offset="0.5" style="stop-color:#B0D5E4"/>
		<stop  offset="0.621" style="stop-color:#78C1D7"/>
		<stop  offset="0.7466" style="stop-color:#45AFCB"/>
		<stop  offset="0.8562" style="stop-color:#1FA1C2"/>
		<stop  offset="0.9444" style="stop-color:#0899BD"/>
		<stop  offset="1" style="stop-color:#0096BB"/>
	</linearGradient>
	<path class="st8" d="M872.2,345.9l5.6-3.6v9.2L872.2,345.9z M885.4,340.4v16.5l21.9-9.6L885.4,340.4z M835.8,309.6l27.6,27.6
		l7.5-5.1l6.8-3.8v-17.8l-16.5,10.6v-14.3l9.7-6.5l6.8-3.8v-26.7l-16.5,10.6v-14.3l9.7-6.5l6.8-4.6V205l-42,47.1V309.6z
		 M927.4,295.9l-42-27v26.8l42,22.4V295.9z M862.5,166.2v-14.6l-40.7-36.6V135l8.3,6.3L862.5,166.2z M927.4,338.6v-8.1l-42-21.3V327
		l37.5,13.5L927.4,338.6z M927.4,282.5v-43.1l-42-35.6v50.5l8.1,5.5L927.4,282.5z M760.8,270.3v-53.8l10.2,12.7v41.1h6.4V233
		l10.2,12.7v45.9l7.6,1.1v-54.6L757,197.4v72.9H760.8z M798.9,293.3l16.5,2.3v-71.4l-12.7,10.1v-14.7l8.8-7l4-3.2v-17.1l-12.7,10.1
		v-14.7l8.8-7l4-3.2V153l-12.7,10.1v-14.7l8.8-7l4-3.2v-22.9l-35.6,36.2v65.2l19.1,21V293.3z M731.7,291.3v-21h20.2v-71.6
		l-35.6,33.1v57.2L731.7,291.3z M822.8,296.6l9.2,9.2v-55.1l11.7-13.2l-21.9-16.8v75.8L822.8,296.6z M862.5,205.7v-25l-40.7-31.3v25
		l8.3,6.3L862.5,205.7z M851.4,228.9l9.2-10.3l-38.7-29.8v17.4l8.3,6.3L851.4,228.9z"/>
	<linearGradient id="SVGID_10_" gradientUnits="userSpaceOnUse" x1="512.4868" y1="408.1164" x2="559.5436" y2="408.1164">
		<stop  offset="0" style="stop-color:#007790"/>
		<stop  offset="6.512462e-02" style="stop-color:#057A92"/>
		<stop  offset="0.1414" style="stop-color:#138199"/>
		<stop  offset="0.2234" style="stop-color:#2B8EA4"/>
		<stop  offset="0.3093" style="stop-color:#4C9FB4"/>
		<stop  offset="0.3983" style="stop-color:#76B6C8"/>
		<stop  offset="0.4887" style="stop-color:#A9D1E1"/>
		<stop  offset="0.5" style="stop-color:#B0D5E4"/>
		<stop  offset="0.621" style="stop-color:#78C1D7"/>
		<stop  offset="0.7466" style="stop-color:#45AFCB"/>
		<stop  offset="0.8562" style="stop-color:#1FA1C2"/>
		<stop  offset="0.9444" style="stop-color:#0899BD"/>
		<stop  offset="1" style="stop-color:#0096BB"/>
	</linearGradient>
	<path class="st9" d="M534.4,377.5L534.4,377.5v29h-22v-7.1C512.5,387.4,522.3,377.5,534.4,377.5z M537.6,406.5h22v-7.1
		c0-12.1-9.8-22-22-22l0,0V406.5z M512.5,438.7h22v-29h-22V438.7z M537.6,438.7h22v-29h-22V438.7z"/>
	<linearGradient id="SVGID_11_" gradientUnits="userSpaceOnUse" x1="910.0565" y1="475.5645" x2="946.254" y2="475.5645">
		<stop  offset="0" style="stop-color:#007790"/>
		<stop  offset="6.512462e-02" style="stop-color:#057A92"/>
		<stop  offset="0.1414" style="stop-color:#138199"/>
		<stop  offset="0.2234" style="stop-color:#2B8EA4"/>
		<stop  offset="0.3093" style="stop-color:#4C9FB4"/>
		<stop  offset="0.3983" style="stop-color:#76B6C8"/>
		<stop  offset="0.4887" style="stop-color:#A9D1E1"/>
		<stop  offset="0.5" style="stop-color:#B0D5E4"/>
		<stop  offset="0.621" style="stop-color:#78C1D7"/>
		<stop  offset="0.7466" style="stop-color:#45AFCB"/>
		<stop  offset="0.8562" style="stop-color:#1FA1C2"/>
		<stop  offset="0.9444" style="stop-color:#0899BD"/>
		<stop  offset="1" style="stop-color:#0096BB"/>
	</linearGradient>
	<path class="st10" d="M926.9,452L926.9,452v22.3h-16.9v-5.4C910.1,459.6,917.6,452,926.9,452z M929.4,474.4h16.9v-5.4
		c0-9.3-7.6-16.9-16.9-16.9l0,0V474.4z M910.1,499.1h16.9v-22.3h-16.9V499.1z M929.4,499.1h16.9v-22.3h-16.9V499.1z"/>
	<g>
		<path d="M704.9,528.1c-3.7,0.3-4.8,1.1-5,3c-0.2,1.7-0.3,3.1-0.3,6.3v6.3c0,6.1-1.1,10.6-4.5,13.9c-2.8,2.6-6.6,3.6-10.4,3.6
			c-4.1,0-7.5-0.6-10.4-2.6c-3.5-2.4-5.2-6.1-5.2-13.2v-12.4c0-4.1-0.5-4.6-5-4.8v-2.9h18.3v2.9c-4.4,0.3-5,0.7-5,4.8v12
			c0,7.5,2.7,11.5,9.2,11.5c6.5,0,9.1-4.4,9.1-12.4v-6.6c0-3.2-0.1-4.5-0.3-6.2c-0.3-1.9-1.1-2.9-6.1-3.1v-2.9h15.5V528.1z"/>
		<path d="M725.9,560.3v-2.9c2.8-0.4,3.2-0.6,2.6-2.5c-0.5-1.4-1.2-3.4-1.9-5h-11.3c-0.3,1-1,2.8-1.6,4.8c-0.5,1.8,0.2,2.6,4.3,2.8
			v2.9h-14.6v-2.9c4.2-0.4,4.6-0.5,6.5-5l11.3-27.2l4.1-0.8c3.6,9.4,7.2,18.3,10.9,27.3c1.8,4.5,2.4,5.1,6.5,5.6v2.9H725.9z
			 M721.1,534.3c-1.5,3.8-3.2,8.2-4.6,12.1h9L721.1,534.3z"/>
		<path d="M769.6,541c4.8,0.8,9.3,3.8,9.3,8.6c0,3.7-2.1,6.8-5.6,8.5c-2.8,1.4-6.5,2.2-9.9,2.2h-17.7v-2.9c4.4-0.2,4.8-0.7,4.8-4.8
			v-19.7c0-4.1-0.6-4.6-4.5-4.8v-2.9h17.9c4.2,0,7,0.5,9.3,1.9c2.2,1.3,3.6,3.4,3.6,6.3C776.8,538.1,773.3,540,769.6,541z
			 M761.7,540c4.8,0,6.9-1.8,6.9-5.6c0-4.7-3.5-5.9-6.3-5.9c-2.3,0-2.9,0.3-3.2,0.8c-0.4,0.4-0.4,1.4-0.4,1.9v8.9H761.7z
			 M758.6,552.5c0,3.4,1.2,4.6,4.8,4.5c3.3-0.1,6.5-1.9,6.5-6.8c0-5-2.9-7-8.5-7h-2.8V552.5z"/>
		<path d="M835.4,528.1c-4.3,0.4-5.1,1.1-7.2,6.1c-1.6,3.8-6.4,15.4-10.9,26.5H813c-3.8-9.8-9.1-22.6-11.7-28.5
			c-1.4-3-2.3-3.8-6.1-4.1v-2.9h18l-0.1,2.9c-4.2,0.4-4.1,1.1-3.4,3c2.5,6.3,6.9,17.3,7.8,19.4c5.1-13,6.2-15.5,7-17.8
			c1.2-3.6,1.1-4.3-3.6-4.6v-2.9h14.4V528.1z"/>
		<path d="M870.5,550.5c-0.4,2.4-1.6,8.4-2.1,9.8h-30.9v-2.9c5.5-0.2,5.8-0.7,5.8-4.8v-19.7c0-4.1-0.4-4.6-4.8-4.8v-2.9h19.5
			c3,0,7,0,8.9-0.1c0.1,1,0.3,5.4,0.6,8.9l-3,0.4c-0.5-1.8-1-2.9-1.5-3.8c-0.9-1.6-1.7-1.8-4.5-1.8h-4.6c-2.5,0-2.6,0.1-2.6,1.9v9.8
			h5.3c3.7,0,4-0.2,4.8-4.4h3v12.2h-3c-0.8-3.9-1.2-4.2-4.8-4.2h-5.3v8.6c0,2.9,0.6,4.3,3.8,4.3h3.9c3.7,0,4.3-0.2,5.5-1.5
			c1-1,2.1-3.2,3.1-5.5L870.5,550.5z"/>
		<path d="M896.7,534.8c-1-3.6-2.7-7.4-7.8-7.4c-3.1,0-5,1.9-5,4.6c0,2.9,1.8,4.4,6.7,6.4c7,2.9,10.6,5.9,10.6,11.2
			c0,6.9-5.8,11.3-14.4,11.3c-3.2,0-7-0.7-10-2.1c-0.5-1.5-1.3-6.5-1.9-9.6l3-0.8c0.9,3,3.7,9.2,10,9.2c3.4,0,5.4-1.8,5.4-5
			c0-3-2-4.9-6.8-6.9c-6.8-2.9-10.2-6.1-10.2-11.1c0-6.3,5.2-10.5,13.4-10.5c4.3,0,7.4,1,8.8,1.2c0.2,1.9,0.6,4.5,1.1,8.8
			L896.7,534.8z"/>
		<path d="M937.6,535.8c-0.6-3.2-1.4-5-2.3-5.9c-1-0.9-1.8-1.2-5.5-1.2h-2.6v23.9c0,4.1,0.5,4.5,5.8,4.8v2.9h-19.3v-2.9
			c5.1-0.3,5.6-0.7,5.6-4.8v-23.9h-2.7c-4.2,0-5.2,0.6-6.1,1.8c-0.7,1.1-1.2,2.6-1.9,5.2h-3c0.3-4.8,0.5-8.1,0.6-11.9h2.2
			c0.7,1.2,1.2,1.4,2.9,1.4h23.5c1.6,0,2.3-0.3,3.1-1.4h2.1c0.1,2.3,0.4,7.7,0.7,11.8L937.6,535.8z"/>
		<path d="M961.1,560.3v-2.9c2.8-0.4,3.2-0.6,2.6-2.5c-0.5-1.4-1.2-3.4-1.9-5h-11.3c-0.3,1-1,2.8-1.6,4.8c-0.5,1.8,0.2,2.6,4.3,2.8
			v2.9h-14.6v-2.9c4.2-0.4,4.6-0.5,6.5-5l11.3-27.2l4.1-0.8c3.6,9.4,7.2,18.3,10.9,27.3c1.8,4.5,2.4,5.1,6.5,5.6v2.9H961.1z
			 M956.3,534.3c-1.5,3.8-3.2,8.2-4.6,12.1h9L956.3,534.3z"/>
		<path d="M1016.8,560.7c-0.2,0-1.4-0.1-2.1-0.1c-7.5-0.5-9.2-2.1-11.2-5.1c-1.7-2.5-3.2-5.4-4.8-8c-0.8-1.3-1.8-1.7-3.5-1.7h-1.5
			v6.8c0,4.1,0.3,4.4,4.8,4.8v2.9h-17.7v-2.9c4.3-0.2,4.9-0.7,4.9-4.8v-19.8c0-3.9-0.5-4.5-4.9-4.7v-2.9h16.5c5.4,0,8.5,0.5,10.8,2
			c2.3,1.5,3.8,3.8,3.8,7.1c0,5-3.9,7.8-7.1,9c0.9,1.5,3.1,5,4.8,7.5c2,3,2.8,4,3.8,5.1c1.2,1.2,2.3,1.9,3.7,2.2L1016.8,560.7z
			 M995.9,542.6c2.6,0,4.1-0.3,5.2-1.1c1.8-1.4,2.7-3.1,2.7-6.1c0-5.2-3.4-7-6.5-7c-1.8,0-2.6,0.3-2.9,0.6c-0.4,0.4-0.6,1.4-0.6,2.5
			v11.1H995.9z"/>
		<path d="M648,592.6c-0.9,3.3-2.4,7.8-3.4,9.5c-1.6,0.4-6.6,1.4-10.3,1.4c-15.6,0-21.8-9.2-21.8-18.2c0-11.6,9.3-18.6,22.6-18.6
			c5,0,8.7,0.9,10.4,1.2c0.5,3.5,1.1,7.4,1.4,10.2l-3,0.5c-1.4-4.8-3.4-6.8-5.7-7.6c-1.4-0.5-3-0.7-4.4-0.7
			c-8.2,0-11.8,6.5-11.8,13.9c0,9.8,5.5,15.6,12.8,15.6c4.8,0,7.2-2,10.4-8.2L648,592.6z"/>
		<path d="M673.3,566.7c10.9,0,18.8,7.5,18.8,17.9c0,11.7-8.8,18.9-19.5,18.9c-10.5,0-19.1-7.3-19.1-18.6
			C653.5,575.7,660.9,566.7,673.3,566.7z M672.3,570.1c-5.9,0-9.5,5.4-9.5,14.1c0,8.7,3.6,16,10.9,16c5.5,0,9.1-4.7,9.1-14.1
			C682.9,575.9,678.8,570.1,672.3,570.1z"/>
		<path d="M738.2,570.4c-3.4,0.3-4.6,0.8-4.9,3.2c-0.2,1.7-0.3,3.8-0.3,7.7V603h-4.3l-22.2-26.2v11.8c0,3.9,0.1,6.4,0.3,7.8
			c0.3,2.4,1.7,3,5.6,3.2v2.9h-15v-2.9c3.8-0.4,4.6-1.1,5-3c0.3-1.9,0.3-4.2,0.3-8.1v-10.9c0-4.3-0.1-4.8-0.8-5.6
			c-1.1-1.4-2.6-1.7-5-1.8v-2.9h11.6l20.7,23.2v-9.4c0-3.9-0.1-5.9-0.2-7.6c-0.2-2.5-1.5-3.1-5.8-3.4v-2.9h15V570.4z"/>
		<path d="M763.9,577.2c-1-3.6-2.7-7.4-7.8-7.4c-3.1,0-5,1.9-5,4.6c0,2.9,1.8,4.4,6.7,6.4c7,2.9,10.6,5.9,10.6,11.2
			c0,6.9-5.8,11.3-14.4,11.3c-3.2,0-7-0.7-10-2.1c-0.5-1.5-1.3-6.5-1.9-9.6l3-0.8c0.9,3,3.7,9.2,10,9.2c3.4,0,5.4-1.8,5.4-5
			c0-3-2-4.9-6.8-6.9c-6.8-2.9-10.2-6.1-10.2-11.1c0-6.3,5.2-10.5,13.4-10.5c4.3,0,7.4,1,8.8,1.2c0.2,1.9,0.6,4.5,1.1,8.8
			L763.9,577.2z"/>
		<path d="M804.8,578.1c-0.6-3.2-1.4-5-2.3-5.9c-1-0.9-1.8-1.2-5.5-1.2h-2.6v23.9c0,4.1,0.5,4.5,5.8,4.8v2.9h-19.3v-2.9
			c5.1-0.3,5.6-0.7,5.6-4.8V571h-2.7c-4.2,0-5.2,0.6-6.1,1.8c-0.7,1.1-1.2,2.6-1.9,5.2h-3c0.3-4.8,0.5-8.1,0.6-11.9h2.2
			c0.7,1.2,1.2,1.4,2.9,1.4h23.5c1.6,0,2.3-0.3,3.1-1.4h2.1c0.1,2.3,0.4,7.7,0.7,11.8L804.8,578.1z"/>
		<path d="M848.9,603.1c-0.2,0-1.4-0.1-2.1-0.1c-7.5-0.5-9.2-2.1-11.2-5.1c-1.7-2.5-3.2-5.4-4.8-8c-0.8-1.3-1.8-1.7-3.5-1.7h-1.5
			v6.8c0,4.1,0.3,4.4,4.8,4.8v2.9H813v-2.9c4.3-0.2,4.9-0.7,4.9-4.8v-19.8c0-3.9-0.5-4.5-4.9-4.7v-2.9h16.5c5.4,0,8.5,0.5,10.8,2
			c2.3,1.5,3.8,3.8,3.8,7.1c0,5-3.9,7.8-7.1,9c0.9,1.5,3.1,5,4.8,7.5c2,3,2.8,4,3.8,5.1c1.2,1.2,2.3,1.9,3.7,2.2L848.9,603.1z
			 M828,584.9c2.6,0,4.1-0.3,5.2-1.1c1.8-1.4,2.7-3.1,2.7-6.1c0-5.2-3.4-7-6.5-7c-1.8,0-2.6,0.3-2.9,0.6c-0.4,0.4-0.6,1.4-0.6,2.5
			v11.1H828z"/>
		<path d="M890,570.4c-3.7,0.3-4.8,1.1-5,3c-0.2,1.7-0.3,3.1-0.3,6.3v6.3c0,6.1-1.1,10.6-4.5,13.9c-2.8,2.6-6.6,3.6-10.4,3.6
			c-4.1,0-7.5-0.6-10.4-2.6c-3.5-2.4-5.2-6.1-5.2-13.2v-12.4c0-4.1-0.5-4.6-5-4.8v-2.9h18.3v2.9c-4.4,0.3-5,0.7-5,4.8v12
			c0,7.5,2.7,11.5,9.2,11.5c6.5,0,9.1-4.4,9.1-12.4v-6.6c0-3.2-0.1-4.5-0.3-6.2c-0.3-1.9-1.1-2.9-6.1-3.1v-2.9H890V570.4z"/>
		<path d="M929.1,592.6c-0.9,3.3-2.4,7.8-3.4,9.5c-1.6,0.4-6.6,1.4-10.3,1.4c-15.6,0-21.8-9.2-21.8-18.2c0-11.6,9.3-18.6,22.6-18.6
			c5,0,8.7,0.9,10.4,1.2c0.5,3.5,1.1,7.4,1.4,10.2l-3,0.5c-1.4-4.8-3.4-6.8-5.7-7.6c-1.4-0.5-3-0.7-4.4-0.7
			c-8.2,0-11.8,6.5-11.8,13.9c0,9.8,5.5,15.6,12.8,15.6c4.8,0,7.2-2,10.4-8.2L929.1,592.6z"/>
		<path d="M965.9,578.1c-0.6-3.2-1.4-5-2.3-5.9c-1-0.9-1.8-1.2-5.5-1.2h-2.6v23.9c0,4.1,0.5,4.5,5.8,4.8v2.9h-19.3v-2.9
			c5.1-0.3,5.6-0.7,5.6-4.8V571h-2.7c-4.2,0-5.2,0.6-6.1,1.8c-0.7,1.1-1.2,2.6-1.9,5.2h-3c0.3-4.8,0.5-8.1,0.6-11.9h2.2
			c0.7,1.2,1.2,1.4,2.9,1.4H963c1.6,0,2.3-0.3,3.1-1.4h2.1c0.1,2.3,0.4,7.7,0.7,11.8L965.9,578.1z"/>
		<path d="M974.1,602.6v-2.9c4.3-0.2,4.8-0.7,4.8-4.8v-19.7c0-4.1-0.5-4.6-4.8-4.8v-2.9H992v2.9c-4.3,0.2-4.8,0.7-4.8,4.8v19.7
			c0,4.1,0.5,4.6,4.8,4.8v2.9H974.1z"/>
		<path d="M1017.6,566.7c10.9,0,18.8,7.5,18.8,17.9c0,11.7-8.8,18.9-19.5,18.9c-10.5,0-19.1-7.3-19.1-18.6
			C997.8,575.7,1005.2,566.7,1017.6,566.7z M1016.6,570.1c-5.9,0-9.5,5.4-9.5,14.1c0,8.7,3.6,16,10.9,16c5.5,0,9.1-4.7,9.1-14.1
			C1027.2,575.9,1023.1,570.1,1016.6,570.1z"/>
		<path d="M1082.5,570.4c-3.4,0.3-4.6,0.8-4.9,3.2c-0.2,1.7-0.3,3.8-0.3,7.7V603h-4.3l-22.2-26.2v11.8c0,3.9,0.1,6.4,0.3,7.8
			c0.3,2.4,1.7,3,5.6,3.2v2.9h-15v-2.9c3.8-0.4,4.6-1.1,5-3c0.3-1.9,0.3-4.2,0.3-8.1v-10.9c0-4.3-0.1-4.8-0.8-5.6
			c-1.1-1.4-2.6-1.7-5-1.8v-2.9h11.6l20.7,23.2v-9.4c0-3.9-0.1-5.9-0.2-7.6c-0.2-2.5-1.5-3.1-5.8-3.4v-2.9h15V570.4z"/>
	</g>
</g>
</svg>
