<?xml version="1.0" encoding="utf-8"?>
<!-- Generator: Adobe Illustrator 24.0.0, SVG Export Plug-In . SVG Version: 6.00 Build 0)  -->
<svg version="1.1" id="Layer_1" xmlns="http://www.w3.org/2000/svg" xmlns:xlink="http://www.w3.org/1999/xlink" x="0px" y="0px"
	 viewBox="0 0 1366 768" style="enable-background:new 0 0 1366 768;" xml:space="preserve">
<style type="text/css">
	.st0{fill:url(#SVGID_1_);}
	.st1{fill:url(#SVGID_2_);}
	.st2{fill:url(#SVGID_3_);}
	.st3{fill:url(#SVGID_4_);}
	.st4{fill:#2CABE1;}
	.st5{fill:#1051A2;}
	.st6{fill:#00A650;}
</style>
<g>
	<path d="M667.9,629.2h-1.9l-7.6-11.4v11.4h-1.9v-14.3h1.9l7.6,11.4v-11.4h1.9V629.2z"/>
	<path d="M680.9,617.9v11.3H679v-1.8c-0.4,0.7-0.9,1.2-1.5,1.5c-0.6,0.3-1.4,0.5-2.2,0.5c-0.8,0-1.6-0.2-2.2-0.5
		c-0.7-0.4-1.2-0.9-1.6-1.6c-0.4-0.7-0.6-1.6-0.6-2.6v-6.7h1.9v6.4c0,1.1,0.3,2,0.8,2.6c0.6,0.6,1.3,0.9,2.3,0.9s1.7-0.3,2.3-0.9
		c0.6-0.6,0.8-1.5,0.8-2.6v-6.4H680.9z"/>
	<path d="M691.9,618.4c0.9,0.5,1.6,1.2,2.1,2.1c0.5,0.9,0.8,1.9,0.8,3.1c0,1.1-0.3,2.2-0.8,3c-0.5,0.9-1.2,1.6-2.1,2.1
		c-0.9,0.5-1.9,0.7-3,0.7c-1.1,0-2-0.2-2.9-0.7c-0.8-0.5-1.5-1.2-2-2.1c-0.5-0.9-0.7-1.9-0.7-3.1c0-1.2,0.3-2.2,0.8-3.1
		c0.5-0.9,1.2-1.6,2.1-2.1c0.9-0.5,1.8-0.7,2.9-0.7C690,617.7,691,618,691.9,618.4z M687,619.8c-0.6,0.3-1,0.8-1.4,1.5
		c-0.3,0.6-0.5,1.4-0.5,2.4c0,0.9,0.2,1.7,0.5,2.3c0.3,0.6,0.8,1.1,1.3,1.5s1.2,0.5,1.8,0.5c0.7,0,1.3-0.2,1.9-0.5
		c0.6-0.3,1.1-0.8,1.5-1.5c0.4-0.6,0.6-1.4,0.6-2.3c0-0.9-0.2-1.7-0.5-2.3c-0.4-0.7-0.8-1.1-1.4-1.5c-0.6-0.3-1.2-0.5-1.9-0.5
		C688.2,619.3,687.6,619.4,687,619.8z"/>
	<path d="M712.1,618.4c0.8,0.5,1.5,1.2,1.9,2c0.5,0.9,0.7,1.9,0.7,3c0,1.1-0.2,2.2-0.7,3.1c-0.5,0.9-1.1,1.6-1.9,2.1
		c-0.8,0.5-1.7,0.8-2.8,0.8c-1,0-1.8-0.2-2.5-0.7s-1.3-1.1-1.7-1.8v7.7h-1.9v-16.7h1.9v2.3c0.4-0.7,0.9-1.3,1.7-1.8s1.6-0.7,2.5-0.7
		C710.3,617.7,711.2,618,712.1,618.4z M707,619.9c-0.6,0.3-1.1,0.8-1.4,1.5c-0.4,0.6-0.5,1.4-0.5,2.2s0.2,1.6,0.5,2.2
		c0.4,0.6,0.8,1.1,1.4,1.5c0.6,0.3,1.2,0.5,1.9,0.5s1.3-0.2,1.9-0.5s1.1-0.9,1.4-1.5c0.4-0.7,0.5-1.4,0.5-2.3c0-0.9-0.2-1.6-0.5-2.2
		c-0.4-0.6-0.8-1.1-1.4-1.4s-1.2-0.5-1.9-0.5C708.3,619.3,707.6,619.5,707,619.9z"/>
	<path d="M724.3,618.4c0.7,0.5,1.3,1,1.6,1.8v-2.3h1.9v11.3h-1.9v-2.3c-0.4,0.7-0.9,1.3-1.6,1.8s-1.6,0.7-2.5,0.7
		c-1,0-1.9-0.3-2.8-0.8c-0.8-0.5-1.5-1.2-1.9-2.1s-0.7-1.9-0.7-3.1c0-1.1,0.2-2.2,0.7-3s1.1-1.6,1.9-2c0.8-0.5,1.7-0.7,2.8-0.7
		C722.7,617.7,723.5,617.9,724.3,618.4z M720.2,619.8c-0.6,0.3-1.1,0.8-1.4,1.4c-0.4,0.6-0.5,1.4-0.5,2.2c0,0.9,0.2,1.6,0.5,2.3
		c0.4,0.7,0.8,1.2,1.4,1.5c0.6,0.4,1.2,0.5,1.9,0.5c0.7,0,1.3-0.2,1.9-0.5c0.6-0.3,1.1-0.8,1.4-1.5c0.4-0.6,0.5-1.4,0.5-2.2
		s-0.2-1.6-0.5-2.2c-0.4-0.6-0.8-1.1-1.4-1.5c-0.6-0.3-1.2-0.5-1.9-0.5C721.4,619.3,720.8,619.5,720.2,619.8z"/>
	<path d="M746.8,618.3c0.7,0.4,1.2,0.9,1.6,1.6s0.6,1.6,0.6,2.6v6.7h-1.9v-6.4c0-1.1-0.3-2-0.8-2.6c-0.6-0.6-1.3-0.9-2.3-0.9
		s-1.7,0.3-2.3,0.9s-0.8,1.5-0.8,2.6v6.4H739v-6.4c0-1.1-0.3-2-0.8-2.6s-1.3-0.9-2.3-0.9c-1,0-1.7,0.3-2.3,0.9s-0.8,1.5-0.8,2.6v6.4
		h-1.9v-11.3h1.9v1.8c0.4-0.7,0.9-1.2,1.5-1.5c0.6-0.3,1.4-0.5,2.2-0.5c0.9,0,1.7,0.2,2.4,0.6c0.7,0.4,1.2,1,1.6,1.8
		c0.4-0.8,1-1.4,1.7-1.8c0.7-0.4,1.5-0.7,2.4-0.7C745.4,617.7,746.1,617.9,746.8,618.3z"/>
	<path d="M759.2,618.4c0.7,0.5,1.3,1,1.6,1.8v-2.3h1.9v11.3h-1.9v-2.3c-0.4,0.7-0.9,1.3-1.6,1.8s-1.6,0.7-2.5,0.7
		c-1,0-1.9-0.3-2.8-0.8c-0.8-0.5-1.5-1.2-1.9-2.1s-0.7-1.9-0.7-3.1c0-1.1,0.2-2.2,0.7-3s1.1-1.6,1.9-2c0.8-0.5,1.7-0.7,2.8-0.7
		C757.6,617.7,758.4,617.9,759.2,618.4z M755.1,619.8c-0.6,0.3-1.1,0.8-1.4,1.4c-0.4,0.6-0.5,1.4-0.5,2.2c0,0.9,0.2,1.6,0.5,2.3
		c0.4,0.7,0.8,1.2,1.4,1.5c0.6,0.4,1.2,0.5,1.9,0.5c0.7,0,1.3-0.2,1.9-0.5c0.6-0.3,1.1-0.8,1.4-1.5c0.4-0.6,0.5-1.4,0.5-2.2
		s-0.2-1.6-0.5-2.2c-0.4-0.6-0.8-1.1-1.4-1.5c-0.6-0.3-1.2-0.5-1.9-0.5C756.3,619.3,755.7,619.5,755.1,619.8z"/>
	<path d="M771.1,627.7v1.5h-1.9c-1,0-1.7-0.2-2.2-0.7c-0.5-0.5-0.8-1.2-0.8-2.2v-6.9h-1.5v-1.5h1.5v-2.8h1.9v2.8h2.9v1.5h-2.9v6.9
		c0,0.5,0.1,0.9,0.3,1.1c0.2,0.2,0.6,0.3,1.1,0.3H771.1z"/>
	<path d="M783,617.9v11.3h-1.9v-1.8c-0.4,0.7-0.9,1.2-1.5,1.5c-0.6,0.3-1.4,0.5-2.2,0.5c-0.8,0-1.6-0.2-2.2-0.5
		c-0.7-0.4-1.2-0.9-1.6-1.6c-0.4-0.7-0.6-1.6-0.6-2.6v-6.7h1.9v6.4c0,1.1,0.3,2,0.8,2.6c0.6,0.6,1.3,0.9,2.3,0.9
		c1,0,1.7-0.3,2.3-0.9c0.6-0.6,0.8-1.5,0.8-2.6v-6.4H783z"/>
	<path d="M787.5,629.9c0,1.6-0.7,2.3-2.1,2.3v-0.9c0.3,0,0.6-0.1,0.8-0.2c0.2-0.2,0.2-0.4,0.2-0.8v-0.5h-1.1v-1.9h1.9
		C787.5,628.6,787.5,629.3,787.5,629.9z"/>
	<path d="M796.2,613.9c0.2-0.2,0.5-0.4,0.9-0.4c0.4,0,0.7,0.1,0.9,0.4c0.2,0.2,0.4,0.6,0.4,0.9c0,0.4-0.1,0.7-0.4,0.9
		c-0.2,0.2-0.6,0.4-0.9,0.4c-0.4,0-0.7-0.1-0.9-0.4c-0.2-0.2-0.4-0.6-0.4-0.9C795.8,614.4,795.9,614.1,796.2,613.9z M798,617.9v11.3
		h-1.9v-11.3H798z"/>
	<path d="M804.6,623.5l5.3,5.7h-2.5l-4.4-5v5h-1.9V614h1.9v9l4.3-5h2.6L804.6,623.5z"/>
	<path d="M811.8,613.9c0.2-0.2,0.5-0.4,0.9-0.4c0.4,0,0.7,0.1,0.9,0.4c0.2,0.2,0.4,0.6,0.4,0.9c0,0.4-0.1,0.7-0.4,0.9
		c-0.2,0.2-0.6,0.4-0.9,0.4c-0.4,0-0.7-0.1-0.9-0.4c-0.2-0.2-0.4-0.6-0.4-0.9C811.4,614.4,811.5,614.1,811.8,613.9z M813.6,617.9
		v11.3h-1.9v-11.3H813.6z"/>
	<path d="M828.2,617.7v2h-0.5c-1,0-1.7,0.3-2.2,0.8c-0.5,0.5-0.8,1.4-0.8,2.6v6.2h-1.9v-11.3h1.9v1.9
		C825.4,618.4,826.6,617.7,828.2,617.7z"/>
	<path d="M837.7,618.4c0.7,0.5,1.3,1,1.6,1.8v-2.3h1.9v11.3h-1.9v-2.3c-0.4,0.7-0.9,1.3-1.6,1.8s-1.6,0.7-2.5,0.7
		c-1,0-1.9-0.3-2.8-0.8c-0.8-0.5-1.5-1.2-1.9-2.1s-0.7-1.9-0.7-3.1c0-1.1,0.2-2.2,0.7-3s1.1-1.6,1.9-2c0.8-0.5,1.7-0.7,2.8-0.7
		C836.1,617.7,836.9,617.9,837.7,618.4z M833.6,619.8c-0.6,0.3-1.1,0.8-1.4,1.4c-0.4,0.6-0.5,1.4-0.5,2.2c0,0.9,0.2,1.6,0.5,2.3
		c0.4,0.7,0.8,1.2,1.4,1.5c0.6,0.4,1.2,0.5,1.9,0.5c0.7,0,1.3-0.2,1.9-0.5c0.6-0.3,1.1-0.8,1.4-1.5c0.4-0.6,0.5-1.4,0.5-2.2
		s-0.2-1.6-0.5-2.2c-0.4-0.6-0.8-1.1-1.4-1.5c-0.6-0.3-1.2-0.5-1.9-0.5C834.8,619.3,834.2,619.5,833.6,619.8z"/>
	<path d="M847.8,623.5l5.3,5.7h-2.5l-4.4-5v5h-1.9V614h1.9v9l4.3-5h2.6L847.8,623.5z"/>
	<path d="M860.2,627.7v1.5h-1.9c-1,0-1.7-0.2-2.2-0.7c-0.5-0.5-0.8-1.2-0.8-2.2v-6.9h-1.5v-1.5h1.5v-2.8h1.9v2.8h2.9v1.5h-2.9v6.9
		c0,0.5,0.1,0.9,0.3,1.1c0.2,0.2,0.6,0.3,1.1,0.3H860.2z"/>
	<path d="M870.1,618.4c0.9,0.5,1.6,1.2,2.1,2.1c0.5,0.9,0.8,1.9,0.8,3.1c0,1.1-0.3,2.2-0.8,3c-0.5,0.9-1.2,1.6-2.1,2.1
		c-0.9,0.5-1.9,0.7-3,0.7c-1.1,0-2-0.2-2.9-0.7c-0.8-0.5-1.5-1.2-2-2.1c-0.5-0.9-0.7-1.9-0.7-3.1c0-1.2,0.3-2.2,0.8-3.1
		c0.5-0.9,1.2-1.6,2.1-2.1c0.9-0.5,1.8-0.7,2.9-0.7C868.3,617.7,869.2,618,870.1,618.4z M865.3,619.8c-0.6,0.3-1,0.8-1.4,1.5
		c-0.3,0.6-0.5,1.4-0.5,2.4c0,0.9,0.2,1.7,0.5,2.3c0.3,0.6,0.8,1.1,1.3,1.5s1.2,0.5,1.8,0.5c0.7,0,1.3-0.2,1.9-0.5
		c0.6-0.3,1.1-0.8,1.5-1.5c0.4-0.6,0.6-1.4,0.6-2.3c0-0.9-0.2-1.7-0.5-2.3c-0.4-0.7-0.8-1.1-1.4-1.5c-0.6-0.3-1.2-0.5-1.9-0.5
		C866.4,619.3,865.8,619.4,865.3,619.8z"/>
	<path d="M888.3,618.7c0.7,0.6,1.1,1.5,1.2,2.6h-1.9c0-0.6-0.2-1.1-0.6-1.5c-0.4-0.4-0.9-0.6-1.7-0.6c-0.7,0-1.3,0.2-1.7,0.5
		c-0.4,0.3-0.6,0.8-0.6,1.3c0,0.4,0.1,0.8,0.4,1c0.3,0.3,0.6,0.4,1,0.6c0.4,0.1,0.9,0.3,1.5,0.4c0.8,0.2,1.5,0.4,2,0.6
		c0.5,0.2,0.9,0.5,1.3,0.9c0.4,0.4,0.5,1,0.5,1.8c0,0.6-0.2,1.2-0.5,1.7c-0.4,0.5-0.9,0.9-1.5,1.1c-0.6,0.3-1.4,0.4-2.2,0.4
		c-1.3,0-2.3-0.3-3-0.9s-1.2-1.5-1.2-2.6h1.9c0,0.6,0.3,1.1,0.7,1.5c0.4,0.4,1,0.6,1.7,0.6c0.8,0,1.4-0.2,1.8-0.5s0.6-0.7,0.6-1.3
		c0-0.4-0.1-0.8-0.4-1c-0.3-0.3-0.6-0.4-1-0.6c-0.4-0.1-0.9-0.3-1.6-0.4c-0.8-0.2-1.5-0.4-2-0.5c-0.5-0.2-0.9-0.5-1.3-0.9
		c-0.4-0.4-0.5-0.9-0.5-1.7c0-0.6,0.2-1.2,0.5-1.7c0.4-0.5,0.9-0.9,1.5-1.2c0.7-0.3,1.4-0.5,2.3-0.5
		C886.6,617.7,887.6,618,888.3,618.7z"/>
	<path d="M897.6,627.7v1.5h-1.9c-1,0-1.7-0.2-2.2-0.7c-0.5-0.5-0.8-1.2-0.8-2.2v-6.9h-1.5v-1.5h1.5v-2.8h1.9v2.8h2.9v1.5h-2.9v6.9
		c0,0.5,0.1,0.9,0.3,1.1c0.2,0.2,0.6,0.3,1.1,0.3H897.6z"/>
	<path d="M906.8,618.4c0.7,0.5,1.3,1,1.6,1.8v-2.3h1.9v11.3h-1.9v-2.3c-0.4,0.7-0.9,1.3-1.6,1.8s-1.6,0.7-2.5,0.7
		c-1,0-1.9-0.3-2.8-0.8c-0.8-0.5-1.5-1.2-1.9-2.1s-0.7-1.9-0.7-3.1c0-1.1,0.2-2.2,0.7-3s1.1-1.6,1.9-2c0.8-0.5,1.7-0.7,2.8-0.7
		C905.3,617.7,906.1,617.9,906.8,618.4z M902.8,619.8c-0.6,0.3-1.1,0.8-1.4,1.4c-0.4,0.6-0.5,1.4-0.5,2.2c0,0.9,0.2,1.6,0.5,2.3
		c0.4,0.7,0.8,1.2,1.4,1.5c0.6,0.4,1.2,0.5,1.9,0.5c0.7,0,1.3-0.2,1.9-0.5c0.6-0.3,1.1-0.8,1.4-1.5c0.4-0.6,0.5-1.4,0.5-2.2
		s-0.2-1.6-0.5-2.2c-0.4-0.6-0.8-1.1-1.4-1.5c-0.6-0.3-1.2-0.5-1.9-0.5C904,619.3,903.3,619.5,902.8,619.8z"/>
	<path d="M918.8,627.7v1.5h-1.9c-1,0-1.7-0.2-2.2-0.7c-0.5-0.5-0.8-1.2-0.8-2.2v-6.9h-1.5v-1.5h1.5v-2.8h1.9v2.8h2.9v1.5h-2.9v6.9
		c0,0.5,0.1,0.9,0.3,1.1c0.2,0.2,0.6,0.3,1.1,0.3H918.8z"/>
	<path d="M921.6,617.9l3.5,9.2l3.5-9.2h1.9l-6.8,16.6h-1.9l2.3-5.5l-4.5-11.1H921.6z"/>
	<path d="M941.1,618.4c0.8,0.5,1.5,1.2,1.9,2c0.5,0.9,0.7,1.9,0.7,3c0,1.1-0.2,2.2-0.7,3.1c-0.5,0.9-1.1,1.6-1.9,2.1
		c-0.8,0.5-1.7,0.8-2.8,0.8c-1,0-1.8-0.2-2.5-0.7s-1.3-1.1-1.7-1.8v2.3h-1.9V614h1.9v6.2c0.4-0.7,0.9-1.3,1.7-1.8s1.6-0.7,2.5-0.7
		C939.4,617.7,940.3,618,941.1,618.4z M936.1,619.9c-0.6,0.3-1.1,0.8-1.4,1.5c-0.4,0.6-0.5,1.4-0.5,2.2s0.2,1.6,0.5,2.2
		c0.4,0.6,0.8,1.1,1.4,1.5c0.6,0.3,1.2,0.5,1.9,0.5s1.3-0.2,1.9-0.5s1.1-0.9,1.4-1.5c0.4-0.7,0.5-1.4,0.5-2.3c0-0.9-0.2-1.6-0.5-2.2
		c-0.4-0.6-0.8-1.1-1.4-1.4s-1.2-0.5-1.9-0.5C937.3,619.3,936.7,619.5,936.1,619.9z"/>
	<path d="M954,618.4c0.9,0.5,1.6,1.2,2.1,2.1c0.5,0.9,0.8,1.9,0.8,3.1c0,1.1-0.3,2.2-0.8,3c-0.5,0.9-1.2,1.6-2.1,2.1
		c-0.9,0.5-1.9,0.7-3,0.7c-1.1,0-2-0.2-2.9-0.7c-0.8-0.5-1.5-1.2-2-2.1c-0.5-0.9-0.7-1.9-0.7-3.1c0-1.2,0.3-2.2,0.8-3.1
		c0.5-0.9,1.2-1.6,2.1-2.1c0.9-0.5,1.8-0.7,2.9-0.7C952.2,617.7,953.2,618,954,618.4z M949.2,619.8c-0.6,0.3-1,0.8-1.4,1.5
		c-0.3,0.6-0.5,1.4-0.5,2.4c0,0.9,0.2,1.7,0.5,2.3c0.3,0.6,0.8,1.1,1.3,1.5s1.2,0.5,1.8,0.5c0.7,0,1.3-0.2,1.9-0.5
		c0.6-0.3,1.1-0.8,1.5-1.5c0.4-0.6,0.6-1.4,0.6-2.3c0-0.9-0.2-1.7-0.5-2.3c-0.4-0.7-0.8-1.1-1.4-1.5c-0.6-0.3-1.2-0.5-1.9-0.5
		C950.4,619.3,949.7,619.4,949.2,619.8z"/>
	<path d="M966,618.7c0.7,0.6,1.1,1.5,1.2,2.6h-1.9c0-0.6-0.2-1.1-0.6-1.5c-0.4-0.4-0.9-0.6-1.7-0.6c-0.7,0-1.3,0.2-1.7,0.5
		c-0.4,0.3-0.6,0.8-0.6,1.3c0,0.4,0.1,0.8,0.4,1c0.3,0.3,0.6,0.4,1,0.6c0.4,0.1,0.9,0.3,1.5,0.4c0.8,0.2,1.5,0.4,2,0.6
		c0.5,0.2,0.9,0.5,1.3,0.9c0.4,0.4,0.5,1,0.5,1.8c0,0.6-0.2,1.2-0.5,1.7c-0.4,0.5-0.9,0.9-1.5,1.1c-0.6,0.3-1.4,0.4-2.2,0.4
		c-1.3,0-2.3-0.3-3-0.9s-1.2-1.5-1.2-2.6h1.9c0,0.6,0.3,1.1,0.7,1.5c0.4,0.4,1,0.6,1.7,0.6c0.8,0,1.4-0.2,1.8-0.5s0.6-0.7,0.6-1.3
		c0-0.4-0.1-0.8-0.4-1c-0.3-0.3-0.6-0.4-1-0.6c-0.4-0.1-0.9-0.3-1.6-0.4c-0.8-0.2-1.5-0.4-2-0.5c-0.5-0.2-0.9-0.5-1.3-0.9
		c-0.4-0.4-0.5-0.9-0.5-1.7c0-0.6,0.2-1.2,0.5-1.7c0.4-0.5,0.9-0.9,1.5-1.2c0.7-0.3,1.4-0.5,2.3-0.5
		C964.3,617.7,965.3,618,966,618.7z"/>
	<path d="M983.4,618.4c0.7,0.5,1.3,1,1.6,1.8V614h1.9v15.3h-1.9v-2.3c-0.4,0.7-0.9,1.3-1.6,1.8s-1.6,0.7-2.5,0.7
		c-1,0-1.9-0.3-2.8-0.8c-0.8-0.5-1.5-1.2-1.9-2.1s-0.7-1.9-0.7-3.1c0-1.1,0.2-2.2,0.7-3s1.1-1.6,1.9-2c0.8-0.5,1.7-0.7,2.8-0.7
		C981.9,617.7,982.7,617.9,983.4,618.4z M979.4,619.8c-0.6,0.3-1.1,0.8-1.4,1.4c-0.4,0.6-0.5,1.4-0.5,2.2c0,0.9,0.2,1.6,0.5,2.3
		c0.4,0.7,0.8,1.2,1.4,1.5c0.6,0.4,1.2,0.5,1.9,0.5c0.7,0,1.3-0.2,1.9-0.5c0.6-0.3,1.1-0.8,1.4-1.5c0.4-0.6,0.5-1.4,0.5-2.2
		s-0.2-1.6-0.5-2.2c-0.4-0.6-0.8-1.1-1.4-1.5c-0.6-0.3-1.2-0.5-1.9-0.5C980.6,619.3,979.9,619.5,979.4,619.8z"/>
	<path d="M997.3,618.4c0.7,0.5,1.3,1,1.6,1.8v-2.3h1.9v11.3h-1.9v-2.3c-0.4,0.7-0.9,1.3-1.6,1.8s-1.6,0.7-2.5,0.7
		c-1,0-1.9-0.3-2.8-0.8c-0.8-0.5-1.5-1.2-1.9-2.1s-0.7-1.9-0.7-3.1c0-1.1,0.2-2.2,0.7-3s1.1-1.6,1.9-2c0.8-0.5,1.7-0.7,2.8-0.7
		C995.7,617.7,996.6,617.9,997.3,618.4z M993.2,619.8c-0.6,0.3-1.1,0.8-1.4,1.4c-0.4,0.6-0.5,1.4-0.5,2.2c0,0.9,0.2,1.6,0.5,2.3
		c0.4,0.7,0.8,1.2,1.4,1.5c0.6,0.4,1.2,0.5,1.9,0.5c0.7,0,1.3-0.2,1.9-0.5c0.6-0.3,1.1-0.8,1.4-1.5c0.4-0.6,0.5-1.4,0.5-2.2
		s-0.2-1.6-0.5-2.2c-0.4-0.6-0.8-1.1-1.4-1.5c-0.6-0.3-1.2-0.5-1.9-0.5C994.4,619.3,993.8,619.5,993.2,619.8z"/>
	<path d="M1009.2,617.7v2h-0.5c-1,0-1.7,0.3-2.2,0.8c-0.5,0.5-0.8,1.4-0.8,2.6v6.2h-1.9v-11.3h1.9v1.9
		C1006.5,618.4,1007.6,617.7,1009.2,617.7z"/>
	<path d="M1020.3,618.4c0.8,0.5,1.5,1.2,1.9,2c0.5,0.9,0.7,1.9,0.7,3c0,1.1-0.2,2.2-0.7,3.1c-0.5,0.9-1.1,1.6-1.9,2.1
		c-0.8,0.5-1.7,0.8-2.8,0.8c-1,0-1.8-0.2-2.5-0.7s-1.3-1.1-1.7-1.8v2.3h-1.9V614h1.9v6.2c0.4-0.7,0.9-1.3,1.7-1.8s1.6-0.7,2.5-0.7
		C1018.6,617.7,1019.5,618,1020.3,618.4z M1015.3,619.9c-0.6,0.3-1.1,0.8-1.4,1.5c-0.4,0.6-0.5,1.4-0.5,2.2s0.2,1.6,0.5,2.2
		c0.4,0.6,0.8,1.1,1.4,1.5c0.6,0.3,1.2,0.5,1.9,0.5s1.3-0.2,1.9-0.5s1.1-0.9,1.4-1.5c0.4-0.7,0.5-1.4,0.5-2.3c0-0.9-0.2-1.6-0.5-2.2
		c-0.4-0.6-0.8-1.1-1.4-1.4s-1.2-0.5-1.9-0.5C1016.5,619.3,1015.9,619.5,1015.3,619.9z"/>
	<path d="M1032.5,618.4c0.7,0.5,1.3,1,1.6,1.8v-2.3h1.9v11.3h-1.9v-2.3c-0.4,0.7-0.9,1.3-1.6,1.8s-1.6,0.7-2.5,0.7
		c-1,0-1.9-0.3-2.8-0.8c-0.8-0.5-1.5-1.2-1.9-2.1s-0.7-1.9-0.7-3.1c0-1.1,0.2-2.2,0.7-3s1.1-1.6,1.9-2c0.8-0.5,1.7-0.7,2.8-0.7
		C1031,617.7,1031.8,617.9,1032.5,618.4z M1028.5,619.8c-0.6,0.3-1.1,0.8-1.4,1.4c-0.4,0.6-0.5,1.4-0.5,2.2c0,0.9,0.2,1.6,0.5,2.3
		c0.4,0.7,0.8,1.2,1.4,1.5c0.6,0.4,1.2,0.5,1.9,0.5c0.7,0,1.3-0.2,1.9-0.5c0.6-0.3,1.1-0.8,1.4-1.5c0.4-0.6,0.5-1.4,0.5-2.2
		s-0.2-1.6-0.5-2.2c-0.4-0.6-0.8-1.1-1.4-1.5c-0.6-0.3-1.2-0.5-1.9-0.5C1029.7,619.3,1029,619.5,1028.5,619.8z"/>
	<path d="M1039.2,613.9c0.2-0.2,0.5-0.4,0.9-0.4c0.4,0,0.7,0.1,0.9,0.4c0.2,0.2,0.4,0.6,0.4,0.9c0,0.4-0.1,0.7-0.4,0.9
		c-0.2,0.2-0.6,0.4-0.9,0.4c-0.4,0-0.7-0.1-0.9-0.4c-0.2-0.2-0.4-0.6-0.4-0.9C1038.9,614.4,1039,614.1,1039.2,613.9z M1041.1,617.9
		v11.3h-1.9v-11.3H1041.1z"/>
</g>
<g>
	<linearGradient id="SVGID_1_" gradientUnits="userSpaceOnUse" x1="256.2332" y1="325.8509" x2="477.5189" y2="325.8509">
		<stop  offset="0" style="stop-color:#1B3D6D"/>
		<stop  offset="0.1417" style="stop-color:#17437E"/>
		<stop  offset="0.3708" style="stop-color:#1051A2"/>
		<stop  offset="0.6854" style="stop-color:#2CABE1"/>
		<stop  offset="1" style="stop-color:#1051A2"/>
	</linearGradient>
	<path class="st0" d="M294.2,409.9c-5.8-23.8,0.6-50,19.2-68.7l115-115c13.6-13.6,31.2-20.7,49-21.2c-14.3-4-32.5-8.1-53.2-10.6
		L277.5,341.3c-28.4,28.4-28.4,74.5,0,102.9l13.1,13.1C290.5,439.3,292.1,423.2,294.2,409.9z"/>
	<linearGradient id="SVGID_2_" gradientUnits="userSpaceOnUse" x1="290.6199" y1="513.1525" x2="528.7475" y2="513.1525">
		<stop  offset="0" style="stop-color:#1051A2"/>
		<stop  offset="0.3146" style="stop-color:#2CABE1"/>
		<stop  offset="0.6292" style="stop-color:#1051A2"/>
		<stop  offset="0.8583" style="stop-color:#17437E"/>
		<stop  offset="1" style="stop-color:#1B3D6D"/>
	</linearGradient>
	<path class="st1" d="M428.5,559.1l-115-115c-9.8-9.8-16.2-21.7-19.2-34.2c-2.2,13.3-3.8,29.3-3.6,47.3l137.8,137.8
		c27.6,27.6,71.7,28.4,100.3,2.5c-28.9-5.1-47.2-11.6-58.8-17.8C454.8,577.7,440.1,570.8,428.5,559.1z"/>
	<linearGradient id="SVGID_3_" gradientUnits="userSpaceOnUse" x1="469.9555" y1="560.6443" x2="602.6932" y2="560.6443">
		<stop  offset="0" style="stop-color:#1051A2"/>
		<stop  offset="0.3146" style="stop-color:#2CABE1"/>
		<stop  offset="0.6292" style="stop-color:#1051A2"/>
		<stop  offset="0.8583" style="stop-color:#17437E"/>
		<stop  offset="1" style="stop-color:#1B3D6D"/>
	</linearGradient>
	<path class="st2" d="M602.7,523.7h-35.9l-35.4,35.4c-16.7,16.7-39.6,23.6-61.4,20.6c11.6,6.2,29.9,12.7,58.8,17.8
		c0.9-0.8,1.8-1.6,2.6-2.5L602.7,523.7z"/>
	<linearGradient id="SVGID_4_" gradientUnits="userSpaceOnUse" x1="424.3404" y1="219.9853" x2="611.9622" y2="219.9853">
		<stop  offset="0" style="stop-color:#1B3D6D"/>
		<stop  offset="0.1417" style="stop-color:#17437E"/>
		<stop  offset="0.3708" style="stop-color:#1051A2"/>
		<stop  offset="0.6854" style="stop-color:#2CABE1"/>
		<stop  offset="1" style="stop-color:#1051A2"/>
	</linearGradient>
	<path class="st3" d="M531.4,226.3l38.3,38.3l42.3,6.4l-80.6-80.6c-28.4-28.4-74.5-28.4-102.9,0l-4.1,4.1
		c20.7,2.5,38.9,6.6,53.2,10.6C496.9,204.4,516.5,211.5,531.4,226.3z"/>
</g>
<g>
	<g>
		<polygon class="st4" points="428.9,400.7 536.6,272.4 731.2,301.8 731.8,325.2 741.6,336 741.6,280.6 773.1,280.6 773.1,300.2 
			819.8,306.7 871,357.8 782.9,368.7 781.8,353.4 726.3,353.4 727.4,373 695.9,375.2 655.6,419.8 536,292.5 		"/>
		<g>
			<polygon class="st5" points="392.5,462.2 533.8,316.5 614.3,403.5 533.8,344.7 			"/>
		</g>
		<polygon class="st4" points="580.1,508.4 807.3,508.4 933.5,381.2 1011.8,461.6 931.3,363.8 775.8,385.5 775.8,405.1 766,413.8 
			766,369.2 738.8,369.2 738.8,385.5 704,391 		"/>
		<g>
			<polygon class="st5" points="865,468.2 933.5,400.7 1042.2,513.8 931.3,420.3 			"/>
		</g>
	</g>
</g>
<path class="st5" d="M874.3,347.6l5.7-3.7v9.3L874.3,347.6z M887.7,342v16.7l22.2-9.7L887.7,342z M837.5,310.8l28,28l7.6-5.1
	l6.9-3.8v-18l-16.7,10.8v-14.4l9.9-6.6l6.9-3.8v-27l-16.7,10.8v-14.4l9.9-6.6l6.9-4.6V205l-42.5,47.6V310.8z M930.2,297l-42.5-27.3
	v27.2l42.5,22.7V297z M864.5,165.7v-14.8l-41.2-37V134l8.4,6.4L864.5,165.7z M930.2,340.2V332l-42.5-21.6v18l38,13.7L930.2,340.2z
	 M930.2,283.4v-43.6l-42.5-36.1v51.1l8.2,5.5L930.2,283.4z M761.5,271v-54.5l10.3,12.9V271h6.4v-37.7l10.3,12.9v46.5l7.7,1.1v-55.3
	l-38.6-41.2V271H761.5z M800.1,294.3l16.7,2.3v-72.2L804,234.7v-14.8l8.9-7.1l4-3.2v-17.4L804,202.5v-14.8l8.9-7.1l4-3.2v-25.1
	L804,162.6v-14.8l8.9-7.1l4-3.2v-23.2l-36.1,36.6v66l19.3,21.3V294.3z M732,292.3V271h20.5v-72.5L716.4,232v57.9L732,292.3z
	 M824.3,297.7l9.3,9.3v-55.8l11.9-13.3l-22.2-17v76.8L824.3,297.7z M864.5,205.6v-25.3l-41.2-31.7V174l8.4,6.4L864.5,205.6z
	 M853.2,229.1l9.3-10.4l-39.2-30.1v17.6l8.4,6.4L853.2,229.1z"/>
<path class="st6" d="M532.3,379.6L532.3,379.6V409h-22.2v-7.1C510.1,389.6,520,379.6,532.3,379.6z M535.5,409h22.2v-7.1
	c0-12.3-10-22.2-22.2-22.2l0,0V409z M510.1,441.6h22.2v-29.4h-22.2V441.6z M535.5,441.6h22.2v-29.4h-22.2V441.6z"/>
<path class="st6" d="M929.8,455.1L929.8,455.1v22.6h-17.1v-5.5C912.6,462.7,920.3,455.1,929.8,455.1z M932.2,477.7h17.1v-5.5
	c0-9.4-7.7-17.1-17.1-17.1l0,0V477.7z M912.6,502.7h17.1v-22.6h-17.1V502.7z M932.2,502.7h17.1v-22.6h-17.1V502.7z"/>
<g>
	<path d="M704.9,532.1c-3.7,0.3-4.8,1.1-5.1,3c-0.2,1.7-0.3,3.1-0.3,6.4v6.3c0,6.2-1.1,10.7-4.5,14.1c-2.8,2.7-6.7,3.7-10.5,3.7
		c-4.2,0-7.6-0.7-10.5-2.7c-3.5-2.5-5.3-6.1-5.3-13.4v-12.5c0-4.2-0.5-4.7-5.1-4.9v-3h18.5v3c-4.5,0.3-5.1,0.7-5.1,4.9v12.1
		c0,7.6,2.7,11.7,9.3,11.7c6.6,0,9.2-4.5,9.2-12.5v-6.7c0-3.3-0.1-4.6-0.3-6.3c-0.3-1.9-1.1-3-6.1-3.1v-3h15.7V532.1z"/>
	<path d="M726.2,564.7v-3c2.8-0.4,3.3-0.6,2.6-2.5c-0.5-1.4-1.3-3.4-1.9-5.1h-11.4c-0.3,1-1,2.8-1.6,4.8c-0.5,1.9,0.2,2.6,4.4,2.8v3
		h-14.8v-3c4.3-0.4,4.7-0.5,6.6-5l11.5-27.5l4.1-0.8c3.7,9.5,7.3,18.5,11,27.7c1.8,4.5,2.4,5.2,6.6,5.6v3H726.2z M721.3,538.4
		c-1.5,3.9-3.3,8.3-4.7,12.3h9.1L721.3,538.4z"/>
	<path d="M770.4,545.1c4.9,0.8,9.4,3.8,9.4,8.7c0,3.7-2.1,6.8-5.6,8.6c-2.8,1.4-6.6,2.2-10.1,2.2h-17.9v-3c4.4-0.2,4.9-0.7,4.9-4.9
		v-19.9c0-4.2-0.7-4.7-4.6-4.9v-3h18.2c4.2,0,7.1,0.5,9.4,1.9c2.2,1.3,3.7,3.4,3.7,6.3C777.8,542.2,774.1,544.2,770.4,545.1z
		 M762.4,544.1c4.9,0,6.9-1.9,6.9-5.7c0-4.8-3.6-6-6.4-6c-2.4,0-2.9,0.3-3.2,0.8c-0.4,0.4-0.4,1.4-0.4,2v9H762.4z M759.3,556.8
		c0,3.4,1.2,4.7,4.8,4.6c3.3-0.1,6.6-2,6.6-6.8c0-5.1-3-7.1-8.6-7.1h-2.8V556.8z"/>
	<path d="M837.1,532.1c-4.3,0.4-5.1,1.1-7.3,6.1c-1.6,3.9-6.5,15.6-11.1,26.9h-4.3c-3.8-9.9-9.2-22.9-11.9-28.8
		c-1.4-3.1-2.4-3.8-6.1-4.2v-3h18.2l-0.1,3c-4.2,0.4-4.2,1.1-3.4,3.1c2.6,6.4,7,17.6,7.9,19.6c5.1-13.1,6.2-15.6,7.1-18.1
		c1.2-3.7,1.1-4.4-3.7-4.7v-3h14.6V532.1z"/>
	<path d="M872.6,554.7c-0.4,2.4-1.6,8.5-2.1,10h-31.3v-3c5.5-0.2,5.9-0.7,5.9-4.9v-19.9c0-4.2-0.4-4.7-4.9-4.9v-3H860
		c3,0,7.1,0,9-0.1c0.1,1,0.3,5.4,0.6,9l-3.1,0.4c-0.5-1.8-1-2.9-1.5-3.8c-0.9-1.6-1.7-1.9-4.5-1.9h-4.7c-2.6,0-2.6,0.1-2.6,1.9v10
		h5.4c3.8,0,4-0.2,4.9-4.5h3v12.3h-3c-0.8-4-1.3-4.3-4.9-4.3h-5.4v8.8c0,3,0.6,4.3,3.8,4.3h3.9c3.7,0,4.3-0.2,5.6-1.5
		c1-1,2.1-3.3,3.1-5.5L872.6,554.7z"/>
	<path d="M899.1,538.9c-1-3.7-2.7-7.4-7.9-7.4c-3.2,0-5.1,1.9-5.1,4.7c0,3,1.8,4.5,6.8,6.5c7.1,2.9,10.7,6,10.7,11.4
		c0,7-5.9,11.5-14.6,11.5c-3.2,0-7.1-0.7-10.1-2.1c-0.5-1.5-1.3-6.6-1.9-9.7l3-0.8c0.9,3.1,3.7,9.4,10.1,9.4c3.4,0,5.5-1.8,5.5-5.1
		c0-3-2-4.9-6.9-7c-6.8-2.9-10.3-6.1-10.3-11.3c0-6.3,5.3-10.7,13.6-10.7c4.3,0,7.5,1,8.9,1.2c0.2,2,0.6,4.6,1.1,8.9L899.1,538.9z"
		/>
	<path d="M940.5,539.8c-0.6-3.2-1.4-5-2.4-6c-1-0.9-1.9-1.2-5.6-1.2h-2.7v24.2c0,4.2,0.5,4.5,5.9,4.9v3h-19.5v-3
		c5.1-0.3,5.6-0.7,5.6-4.9v-24.2h-2.7c-4.3,0-5.3,0.6-6.1,1.9c-0.7,1.1-1.3,2.7-2,5.3h-3c0.3-4.9,0.5-8.2,0.7-12.1h2.2
		c0.7,1.3,1.3,1.4,3,1.4h23.7c1.6,0,2.4-0.3,3.1-1.4h2.1c0.1,2.3,0.4,7.8,0.7,11.9L940.5,539.8z"/>
	<path d="M964.3,564.7v-3c2.8-0.4,3.3-0.6,2.6-2.5c-0.5-1.4-1.3-3.4-1.9-5.1h-11.4c-0.3,1-1,2.8-1.6,4.8c-0.5,1.9,0.2,2.6,4.4,2.8v3
		h-14.8v-3c4.3-0.4,4.7-0.5,6.6-5l11.5-27.5l4.1-0.8c3.7,9.5,7.3,18.5,11,27.7c1.8,4.5,2.4,5.2,6.6,5.6v3H964.3z M959.4,538.4
		c-1.5,3.9-3.3,8.3-4.7,12.3h9.1L959.4,538.4z"/>
	<path d="M1020.7,565.1c-0.2,0-1.4-0.1-2.1-0.1c-7.6-0.5-9.3-2.1-11.4-5.1c-1.8-2.6-3.2-5.4-4.8-8.1c-0.8-1.3-1.8-1.8-3.5-1.8h-1.5
		v6.8c0,4.2,0.3,4.5,4.9,4.9v3h-17.9v-3c4.4-0.2,4.9-0.7,4.9-4.9v-20c0-4-0.5-4.6-4.9-4.8v-3h16.7c5.5,0,8.6,0.5,10.9,2
		c2.3,1.5,3.9,3.9,3.9,7.2c0,5-3.9,7.9-7.2,9.1c0.9,1.5,3.1,5.1,4.8,7.6c2,3.1,2.8,4,3.9,5.1c1.2,1.3,2.4,1.9,3.8,2.2L1020.7,565.1z
		 M999.5,546.7c2.6,0,4.2-0.3,5.3-1.1c1.9-1.4,2.7-3.2,2.7-6.2c0-5.3-3.4-7.1-6.6-7.1c-1.8,0-2.6,0.3-2.9,0.7
		c-0.4,0.4-0.7,1.4-0.7,2.5v11.2H999.5z"/>
	<path d="M647.3,597.4c-0.9,3.3-2.5,7.9-3.4,9.6c-1.6,0.4-6.7,1.4-10.5,1.4c-15.8,0-22.1-9.4-22.1-18.4c0-11.7,9.4-18.8,22.9-18.8
		c5.1,0,8.8,0.9,10.5,1.2c0.5,3.6,1.1,7.5,1.4,10.3l-3.1,0.5c-1.4-4.9-3.4-6.8-5.8-7.7c-1.4-0.5-3.1-0.7-4.5-0.7
		c-8.3,0-12,6.6-12,14.1c0,9.9,5.5,15.8,12.9,15.8c4.9,0,7.3-2,10.5-8.3L647.3,597.4z"/>
	<path d="M672.9,571.2c11,0,19,7.6,19,18.1c0,11.8-8.9,19.2-19.7,19.2c-10.7,0-19.4-7.4-19.4-18.8
		C652.9,580.3,660.4,571.2,672.9,571.2z M671.9,574.6c-6,0-9.6,5.5-9.6,14.2c0,8.8,3.7,16.2,11.1,16.2c5.5,0,9.2-4.8,9.2-14.3
		C682.6,580.5,678.5,574.6,671.9,574.6z"/>
	<path d="M738.6,575c-3.4,0.3-4.7,0.8-4.9,3.3c-0.2,1.7-0.3,3.8-0.3,7.8v21.9h-4.3l-22.5-26.5v12c0,3.9,0.1,6.5,0.3,7.9
		c0.3,2.4,1.7,3,5.7,3.3v2.9h-15.2v-2.9c3.8-0.4,4.7-1.1,5-3.1c0.3-1.9,0.3-4.2,0.3-8.2v-11c0-4.4-0.1-4.8-0.8-5.6
		c-1.1-1.4-2.6-1.7-5.1-1.9v-3h11.7l21,23.5V586c0-3.9-0.1-6-0.2-7.7c-0.2-2.5-1.5-3.1-5.9-3.4v-3h15.2V575z"/>
	<path d="M764.7,581.8c-1-3.7-2.7-7.4-7.9-7.4c-3.2,0-5.1,1.9-5.1,4.7c0,3,1.8,4.5,6.8,6.5c7.1,2.9,10.7,6,10.7,11.4
		c0,7-5.9,11.5-14.6,11.5c-3.2,0-7.1-0.7-10.1-2.1c-0.5-1.5-1.3-6.6-1.9-9.7l3-0.8c0.9,3.1,3.7,9.4,10.1,9.4c3.4,0,5.5-1.8,5.5-5.1
		c0-3-2-4.9-6.9-7c-6.8-2.9-10.3-6.1-10.3-11.3c0-6.3,5.3-10.7,13.6-10.7c4.3,0,7.5,1,8.9,1.2c0.2,2,0.6,4.6,1.1,8.9L764.7,581.8z"
		/>
	<path d="M806,582.7c-0.6-3.2-1.4-5-2.4-6c-1-0.9-1.9-1.2-5.6-1.2h-2.7v24.2c0,4.2,0.5,4.5,5.9,4.9v3h-19.5v-3
		c5.1-0.3,5.6-0.7,5.6-4.9v-24.2h-2.7c-4.3,0-5.3,0.6-6.1,1.9c-0.7,1.1-1.3,2.7-2,5.3h-3c0.3-4.9,0.5-8.2,0.7-12.1h2.2
		c0.7,1.3,1.3,1.4,3,1.4h23.7c1.6,0,2.4-0.3,3.1-1.4h2.1c0.1,2.3,0.4,7.8,0.7,11.9L806,582.7z"/>
	<path d="M850.7,608c-0.2,0-1.4-0.1-2.1-0.1c-7.6-0.5-9.3-2.1-11.4-5.1c-1.8-2.6-3.2-5.4-4.8-8.1c-0.8-1.3-1.8-1.8-3.5-1.8h-1.5v6.8
		c0,4.2,0.3,4.5,4.9,4.9v3h-17.9v-3c4.4-0.2,4.9-0.7,4.9-4.9v-20c0-4-0.5-4.6-4.9-4.8v-3h16.7c5.5,0,8.6,0.5,10.9,2
		c2.3,1.5,3.9,3.9,3.9,7.2c0,5-3.9,7.9-7.2,9.1c0.9,1.5,3.1,5.1,4.8,7.6c2,3.1,2.8,4,3.9,5.1c1.2,1.3,2.4,1.9,3.8,2.2L850.7,608z
		 M829.5,589.6c2.6,0,4.2-0.3,5.3-1.1c1.9-1.4,2.7-3.2,2.7-6.2c0-5.3-3.4-7.1-6.6-7.1c-1.8,0-2.6,0.3-2.9,0.7
		c-0.4,0.4-0.7,1.4-0.7,2.5v11.2H829.5z"/>
	<path d="M892.3,575c-3.7,0.3-4.8,1.1-5.1,3c-0.2,1.7-0.3,3.1-0.3,6.4v6.3c0,6.2-1.1,10.7-4.5,14.1c-2.8,2.7-6.7,3.7-10.5,3.7
		c-4.2,0-7.6-0.7-10.5-2.7c-3.5-2.5-5.3-6.1-5.3-13.4v-12.5c0-4.2-0.5-4.7-5.1-4.9v-3h18.5v3c-4.5,0.3-5.1,0.7-5.1,4.9V592
		c0,7.6,2.7,11.7,9.3,11.7c6.6,0,9.2-4.5,9.2-12.5v-6.7c0-3.3-0.1-4.6-0.3-6.3c-0.3-1.9-1.1-3-6.1-3.1v-3h15.7V575z"/>
	<path d="M931.9,597.4c-0.9,3.3-2.5,7.9-3.4,9.6c-1.6,0.4-6.7,1.4-10.5,1.4c-15.8,0-22.1-9.4-22.1-18.4c0-11.7,9.4-18.8,22.9-18.8
		c5.1,0,8.8,0.9,10.5,1.2c0.5,3.6,1.1,7.5,1.4,10.3l-3.1,0.5c-1.4-4.9-3.4-6.8-5.8-7.7c-1.4-0.5-3.1-0.7-4.5-0.7
		c-8.3,0-12,6.6-12,14.1c0,9.9,5.5,15.8,12.9,15.8c4.9,0,7.3-2,10.5-8.3L931.9,597.4z"/>
	<path d="M969.2,582.7c-0.6-3.2-1.4-5-2.4-6c-1-0.9-1.9-1.2-5.6-1.2h-2.7v24.2c0,4.2,0.5,4.5,5.9,4.9v3h-19.5v-3
		c5.1-0.3,5.6-0.7,5.6-4.9v-24.2h-2.7c-4.3,0-5.3,0.6-6.1,1.9c-0.7,1.1-1.3,2.7-2,5.3h-3c0.3-4.9,0.5-8.2,0.7-12.1h2.2
		c0.7,1.3,1.3,1.4,3,1.4h23.7c1.6,0,2.4-0.3,3.1-1.4h2.1c0.1,2.3,0.4,7.8,0.7,11.9L969.2,582.7z"/>
	<path d="M977.5,607.6v-3c4.4-0.2,4.9-0.7,4.9-4.9v-19.9c0-4.2-0.5-4.7-4.9-4.9v-3h18.1v3c-4.4,0.2-4.9,0.7-4.9,4.9v19.9
		c0,4.2,0.5,4.7,4.9,4.9v3H977.5z"/>
	<path d="M1021.5,571.2c11,0,19,7.6,19,18.1c0,11.8-8.9,19.2-19.7,19.2c-10.7,0-19.4-7.4-19.4-18.8
		C1001.5,580.3,1009,571.2,1021.5,571.2z M1020.5,574.6c-6,0-9.6,5.5-9.6,14.2c0,8.8,3.7,16.2,11.1,16.2c5.5,0,9.2-4.8,9.2-14.3
		C1031.2,580.5,1027.1,574.6,1020.5,574.6z"/>
	<path d="M1087.2,575c-3.4,0.3-4.7,0.8-4.9,3.3c-0.2,1.7-0.3,3.8-0.3,7.8v21.9h-4.3l-22.5-26.5v12c0,3.9,0.1,6.5,0.3,7.9
		c0.3,2.4,1.7,3,5.7,3.3v2.9H1046v-2.9c3.8-0.4,4.7-1.1,5-3.1c0.3-1.9,0.3-4.2,0.3-8.2v-11c0-4.4-0.1-4.8-0.8-5.6
		c-1.1-1.4-2.6-1.7-5.1-1.9v-3h11.7l21,23.5V586c0-3.9-0.1-6-0.2-7.7c-0.2-2.5-1.5-3.1-5.9-3.4v-3h15.2V575z"/>
</g>
</svg>
